<svg width="447" height="201" viewBox="0 0 447 201" fill="none" xmlns="http://www.w3.org/2000/svg">
<path d="M22.676 173.112C21.9013 173.112 21.2107 172.916 20.604 172.524C20.0067 172.123 19.5353 171.544 19.19 170.788C18.8447 170.032 18.672 169.136 18.672 168.1C18.672 167.064 18.8447 166.168 19.19 165.412C19.5353 164.656 20.0067 164.082 20.604 163.69C21.2107 163.289 21.9013 163.088 22.676 163.088C23.4413 163.088 24.1227 163.289 24.72 163.69C25.3267 164.082 25.8027 164.656 26.148 165.412C26.4933 166.168 26.666 167.064 26.666 168.1C26.666 169.136 26.4933 170.032 26.148 170.788C25.8027 171.544 25.3267 172.123 24.72 172.524C24.1227 172.916 23.4413 173.112 22.676 173.112ZM22.676 171.866C23.46 171.866 24.0853 171.544 24.552 170.9C25.028 170.256 25.266 169.323 25.266 168.1C25.266 166.877 25.028 165.944 24.552 165.3C24.0853 164.656 23.46 164.334 22.676 164.334C21.8827 164.334 21.248 164.656 20.772 165.3C20.3053 165.944 20.072 166.877 20.072 168.1C20.072 169.323 20.3053 170.256 20.772 170.9C21.248 171.544 21.8827 171.866 22.676 171.866ZM32.0139 173.112C31.2392 173.112 30.5486 172.916 29.9419 172.524C29.3446 172.123 28.8732 171.544 28.5279 170.788C28.1826 170.032 28.0099 169.136 28.0099 168.1C28.0099 167.064 28.1826 166.168 28.5279 165.412C28.8732 164.656 29.3446 164.082 29.9419 163.69C30.5486 163.289 31.2392 163.088 32.0139 163.088C32.7792 163.088 33.4606 163.289 34.0579 163.69C34.6646 164.082 35.1406 164.656 35.4859 165.412C35.8312 166.168 36.0039 167.064 36.0039 168.1C36.0039 169.136 35.8312 170.032 35.4859 170.788C35.1406 171.544 34.6646 172.123 34.0579 172.524C33.4606 172.916 32.7792 173.112 32.0139 173.112ZM32.0139 171.866C32.7979 171.866 33.4232 171.544 33.8899 170.9C34.3659 170.256 34.6039 169.323 34.6039 168.1C34.6039 166.877 34.3659 165.944 33.8899 165.3C33.4232 164.656 32.7979 164.334 32.0139 164.334C31.2206 164.334 30.5859 164.656 30.1099 165.3C29.6432 165.944 29.4099 166.877 29.4099 168.1C29.4099 169.323 29.6432 170.256 30.1099 170.9C30.5859 171.544 31.2206 171.866 32.0139 171.866Z" fill="#8D99AE"/>
<path d="M67 168H445" stroke="#808B9E" stroke-opacity="0.06" stroke-width="1.5" stroke-linecap="round" stroke-linejoin="round"/>
<path d="M7.71 129.2V139H6.324V130.418H4.112V129.2H7.71ZM13.8576 139.112C13.083 139.112 12.3923 138.916 11.7856 138.524C11.1883 138.123 10.717 137.544 10.3716 136.788C10.0263 136.032 9.85364 135.136 9.85364 134.1C9.85364 133.064 10.0263 132.168 10.3716 131.412C10.717 130.656 11.1883 130.082 11.7856 129.69C12.3923 129.289 13.083 129.088 13.8576 129.088C14.623 129.088 15.3043 129.289 15.9016 129.69C16.5083 130.082 16.9843 130.656 17.3296 131.412C17.675 132.168 17.8476 133.064 17.8476 134.1C17.8476 135.136 17.675 136.032 17.3296 136.788C16.9843 137.544 16.5083 138.123 15.9016 138.524C15.3043 138.916 14.623 139.112 13.8576 139.112ZM13.8576 137.866C14.6416 137.866 15.267 137.544 15.7336 136.9C16.2096 136.256 16.4476 135.323 16.4476 134.1C16.4476 132.877 16.2096 131.944 15.7336 131.3C15.267 130.656 14.6416 130.334 13.8576 130.334C13.0643 130.334 12.4296 130.656 11.9536 131.3C11.487 131.944 11.2536 132.877 11.2536 134.1C11.2536 135.323 11.487 136.256 11.9536 136.9C12.4296 137.544 13.0643 137.866 13.8576 137.866ZM23.1955 139.112C22.4209 139.112 21.7302 138.916 21.1235 138.524C20.5262 138.123 20.0549 137.544 19.7095 136.788C19.3642 136.032 19.1915 135.136 19.1915 134.1C19.1915 133.064 19.3642 132.168 19.7095 131.412C20.0549 130.656 20.5262 130.082 21.1235 129.69C21.7302 129.289 22.4209 129.088 23.1955 129.088C23.9609 129.088 24.6422 129.289 25.2395 129.69C25.8462 130.082 26.3222 130.656 26.6675 131.412C27.0129 132.168 27.1855 133.064 27.1855 134.1C27.1855 135.136 27.0129 136.032 26.6675 136.788C26.3222 137.544 25.8462 138.123 25.2395 138.524C24.6422 138.916 23.9609 139.112 23.1955 139.112ZM23.1955 137.866C23.9795 137.866 24.6049 137.544 25.0715 136.9C25.5475 136.256 25.7855 135.323 25.7855 134.1C25.7855 132.877 25.5475 131.944 25.0715 131.3C24.6049 130.656 23.9795 130.334 23.1955 130.334C22.4022 130.334 21.7675 130.656 21.2915 131.3C20.8249 131.944 20.5915 132.877 20.5915 134.1C20.5915 135.323 20.8249 136.256 21.2915 136.9C21.7675 137.544 22.4022 137.866 23.1955 137.866ZM32.0154 135.542L30.4754 136.97V139H29.1314V128.612H30.4754V135.276L34.5214 131.58H36.1454L33.0234 134.646L36.4534 139H34.8014L32.0154 135.542Z" fill="#8D99AE"/>
<path d="M67 134H445" stroke="#808B9E" stroke-opacity="0.06" stroke-width="1.5" stroke-linecap="round" stroke-linejoin="round"/>
<path d="M8.56 103.782V105H1.518V104.048L5.508 100.198C5.99333 99.7313 6.32 99.33 6.488 98.994C6.656 98.6487 6.74 98.3033 6.74 97.958C6.74 97.4447 6.558 97.048 6.194 96.768C5.83933 96.4787 5.326 96.334 4.654 96.334C3.57133 96.334 2.736 96.6887 2.148 97.398L1.196 96.572C1.57867 96.1053 2.078 95.7413 2.694 95.48C3.31933 95.2187 4.01467 95.088 4.78 95.088C5.80667 95.088 6.62333 95.3353 7.23 95.83C7.83667 96.3153 8.14 96.978 8.14 97.818C8.14 98.3407 8.028 98.8353 7.804 99.302C7.58 99.7687 7.15533 100.301 6.53 100.898L3.534 103.782H8.56ZM13.674 105.112C12.8994 105.112 12.2087 104.916 11.602 104.524C11.0047 104.123 10.5334 103.544 10.188 102.788C9.84271 102.032 9.67005 101.136 9.67005 100.1C9.67005 99.064 9.84271 98.168 10.188 97.412C10.5334 96.656 11.0047 96.082 11.602 95.69C12.2087 95.2887 12.8994 95.088 13.674 95.088C14.4394 95.088 15.1207 95.2887 15.718 95.69C16.3247 96.082 16.8007 96.656 17.146 97.412C17.4914 98.168 17.664 99.064 17.664 100.1C17.664 101.136 17.4914 102.032 17.146 102.788C16.8007 103.544 16.3247 104.123 15.718 104.524C15.1207 104.916 14.4394 105.112 13.674 105.112ZM13.674 103.866C14.458 103.866 15.0834 103.544 15.55 102.9C16.026 102.256 16.264 101.323 16.264 100.1C16.264 98.8773 16.026 97.944 15.55 97.3C15.0834 96.656 14.458 96.334 13.674 96.334C12.8807 96.334 12.246 96.656 11.77 97.3C11.3034 97.944 11.07 98.8773 11.07 100.1C11.07 101.323 11.3034 102.256 11.77 102.9C12.246 103.544 12.8807 103.866 13.674 103.866ZM23.0119 105.112C22.2373 105.112 21.5466 104.916 20.9399 104.524C20.3426 104.123 19.8713 103.544 19.5259 102.788C19.1806 102.032 19.0079 101.136 19.0079 100.1C19.0079 99.064 19.1806 98.168 19.5259 97.412C19.8713 96.656 20.3426 96.082 20.9399 95.69C21.5466 95.2887 22.2373 95.088 23.0119 95.088C23.7773 95.088 24.4586 95.2887 25.0559 95.69C25.6626 96.082 26.1386 96.656 26.4839 97.412C26.8293 98.168 27.0019 99.064 27.0019 100.1C27.0019 101.136 26.8293 102.032 26.4839 102.788C26.1386 103.544 25.6626 104.123 25.0559 104.524C24.4586 104.916 23.7773 105.112 23.0119 105.112ZM23.0119 103.866C23.7959 103.866 24.4213 103.544 24.8879 102.9C25.3639 102.256 25.6019 101.323 25.6019 100.1C25.6019 98.8773 25.3639 97.944 24.8879 97.3C24.4213 96.656 23.7959 96.334 23.0119 96.334C22.2186 96.334 21.5839 96.656 21.1079 97.3C20.6413 97.944 20.4079 98.8773 20.4079 100.1C20.4079 101.323 20.6413 102.256 21.1079 102.9C21.5839 103.544 22.2186 103.866 23.0119 103.866ZM31.8318 101.542L30.2918 102.97V105H28.9478V94.612H30.2918V101.276L34.3378 97.58H35.9618L32.8398 100.646L36.2698 105H34.6178L31.8318 101.542Z" fill="#8D99AE"/>
<path d="M67 100H445" stroke="#808B9E" stroke-opacity="0.06" stroke-width="1.5" stroke-linecap="round" stroke-linejoin="round"/>
<path d="M5.424 65.316C6.38533 65.4093 7.118 65.708 7.622 66.212C8.126 66.7067 8.378 67.3413 8.378 68.116C8.378 68.676 8.238 69.1847 7.958 69.642C7.678 70.09 7.258 70.4493 6.698 70.72C6.14733 70.9813 5.47067 71.112 4.668 71.112C3.968 71.112 3.296 71.0093 2.652 70.804C2.008 70.5893 1.48067 70.2953 1.07 69.922L1.714 68.816C2.05 69.1333 2.47933 69.39 3.002 69.586C3.52467 69.7727 4.08 69.866 4.668 69.866C5.396 69.866 5.96067 69.712 6.362 69.404C6.77267 69.096 6.978 68.6713 6.978 68.13C6.978 67.5887 6.77733 67.1687 6.376 66.87C5.97467 66.5713 5.368 66.422 4.556 66.422H3.772V65.442L6.236 62.418H1.518V61.2H7.986V62.152L5.424 65.316ZM13.6877 71.112C12.9131 71.112 12.2224 70.916 11.6157 70.524C11.0184 70.1227 10.5471 69.544 10.2017 68.788C9.85639 68.032 9.68372 67.136 9.68372 66.1C9.68372 65.064 9.85639 64.168 10.2017 63.412C10.5471 62.656 11.0184 62.082 11.6157 61.69C12.2224 61.2887 12.9131 61.088 13.6877 61.088C14.4531 61.088 15.1344 61.2887 15.7317 61.69C16.3384 62.082 16.8144 62.656 17.1597 63.412C17.5051 64.168 17.6777 65.064 17.6777 66.1C17.6777 67.136 17.5051 68.032 17.1597 68.788C16.8144 69.544 16.3384 70.1227 15.7317 70.524C15.1344 70.916 14.4531 71.112 13.6877 71.112ZM13.6877 69.866C14.4717 69.866 15.0971 69.544 15.5637 68.9C16.0397 68.256 16.2777 67.3227 16.2777 66.1C16.2777 64.8773 16.0397 63.944 15.5637 63.3C15.0971 62.656 14.4717 62.334 13.6877 62.334C12.8944 62.334 12.2597 62.656 11.7837 63.3C11.3171 63.944 11.0837 64.8773 11.0837 66.1C11.0837 67.3227 11.3171 68.256 11.7837 68.9C12.2597 69.544 12.8944 69.866 13.6877 69.866ZM23.0256 71.112C22.2509 71.112 21.5603 70.916 20.9536 70.524C20.3563 70.1227 19.8849 69.544 19.5396 68.788C19.1943 68.032 19.0216 67.136 19.0216 66.1C19.0216 65.064 19.1943 64.168 19.5396 63.412C19.8849 62.656 20.3563 62.082 20.9536 61.69C21.5603 61.2887 22.2509 61.088 23.0256 61.088C23.7909 61.088 24.4723 61.2887 25.0696 61.69C25.6763 62.082 26.1523 62.656 26.4976 63.412C26.8429 64.168 27.0156 65.064 27.0156 66.1C27.0156 67.136 26.8429 68.032 26.4976 68.788C26.1523 69.544 25.6763 70.1227 25.0696 70.524C24.4723 70.916 23.7909 71.112 23.0256 71.112ZM23.0256 69.866C23.8096 69.866 24.4349 69.544 24.9016 68.9C25.3776 68.256 25.6156 67.3227 25.6156 66.1C25.6156 64.8773 25.3776 63.944 24.9016 63.3C24.4349 62.656 23.8096 62.334 23.0256 62.334C22.2323 62.334 21.5976 62.656 21.1216 63.3C20.6549 63.944 20.4216 64.8773 20.4216 66.1C20.4216 67.3227 20.6549 68.256 21.1216 68.9C21.5976 69.544 22.2323 69.866 23.0256 69.866ZM31.8455 67.542L30.3055 68.97V71H28.9615V60.612H30.3055V67.276L34.3515 63.58H35.9755L32.8535 66.646L36.2835 71H34.6315L31.8455 67.542Z" fill="#8D99AE"/>
<path d="M67 66H445" stroke="#808B9E" stroke-opacity="0.06" stroke-width="1.5" stroke-linecap="round" stroke-linejoin="round"/>
<path d="M9.198 34.592H7.336V37H5.978V34.592H0.532V33.612L5.544 27.2H7.056L2.254 33.388H6.02V31.26H7.336V33.388H9.198V34.592ZM14.0412 37.112C13.2666 37.112 12.5759 36.916 11.9692 36.524C11.3719 36.1227 10.9006 35.544 10.5552 34.788C10.2099 34.032 10.0372 33.136 10.0372 32.1C10.0372 31.064 10.2099 30.168 10.5552 29.412C10.9006 28.656 11.3719 28.082 11.9692 27.69C12.5759 27.2887 13.2666 27.088 14.0412 27.088C14.8066 27.088 15.4879 27.2887 16.0852 27.69C16.6919 28.082 17.1679 28.656 17.5132 29.412C17.8586 30.168 18.0312 31.064 18.0312 32.1C18.0312 33.136 17.8586 34.032 17.5132 34.788C17.1679 35.544 16.6919 36.1227 16.0852 36.524C15.4879 36.916 14.8066 37.112 14.0412 37.112ZM14.0412 35.866C14.8252 35.866 15.4506 35.544 15.9172 34.9C16.3932 34.256 16.6312 33.3227 16.6312 32.1C16.6312 30.8773 16.3932 29.944 15.9172 29.3C15.4506 28.656 14.8252 28.334 14.0412 28.334C13.2479 28.334 12.6132 28.656 12.1372 29.3C11.6706 29.944 11.4372 30.8773 11.4372 32.1C11.4372 33.3227 11.6706 34.256 12.1372 34.9C12.6132 35.544 13.2479 35.866 14.0412 35.866ZM23.3791 37.112C22.6045 37.112 21.9138 36.916 21.3071 36.524C20.7098 36.1227 20.2385 35.544 19.8931 34.788C19.5478 34.032 19.3751 33.136 19.3751 32.1C19.3751 31.064 19.5478 30.168 19.8931 29.412C20.2385 28.656 20.7098 28.082 21.3071 27.69C21.9138 27.2887 22.6045 27.088 23.3791 27.088C24.1445 27.088 24.8258 27.2887 25.4231 27.69C26.0298 28.082 26.5058 28.656 26.8511 29.412C27.1965 30.168 27.3691 31.064 27.3691 32.1C27.3691 33.136 27.1965 34.032 26.8511 34.788C26.5058 35.544 26.0298 36.1227 25.4231 36.524C24.8258 36.916 24.1445 37.112 23.3791 37.112ZM23.3791 35.866C24.1631 35.866 24.7885 35.544 25.2551 34.9C25.7311 34.256 25.9691 33.3227 25.9691 32.1C25.9691 30.8773 25.7311 29.944 25.2551 29.3C24.7885 28.656 24.1631 28.334 23.3791 28.334C22.5858 28.334 21.9511 28.656 21.4751 29.3C21.0085 29.944 20.7751 30.8773 20.7751 32.1C20.7751 33.3227 21.0085 34.256 21.4751 34.9C21.9511 35.544 22.5858 35.866 23.3791 35.866ZM32.199 33.542L30.659 34.97V37H29.315V26.612H30.659V33.276L34.705 29.58H36.329L33.207 32.646L36.637 37H34.985L32.199 33.542Z" fill="#8D99AE"/>
<path d="M67 32H445" stroke="#808B9E" stroke-opacity="0.06" stroke-width="1.5" stroke-linecap="round" stroke-linejoin="round"/>
<path d="M84.676 199.112C83.9013 199.112 83.2107 198.916 82.604 198.524C82.0067 198.123 81.5353 197.544 81.19 196.788C80.8447 196.032 80.672 195.136 80.672 194.1C80.672 193.064 80.8447 192.168 81.19 191.412C81.5353 190.656 82.0067 190.082 82.604 189.69C83.2107 189.289 83.9013 189.088 84.676 189.088C85.4413 189.088 86.1227 189.289 86.72 189.69C87.3267 190.082 87.8027 190.656 88.148 191.412C88.4933 192.168 88.666 193.064 88.666 194.1C88.666 195.136 88.4933 196.032 88.148 196.788C87.8027 197.544 87.3267 198.123 86.72 198.524C86.1227 198.916 85.4413 199.112 84.676 199.112ZM84.676 197.866C85.46 197.866 86.0853 197.544 86.552 196.9C87.028 196.256 87.266 195.323 87.266 194.1C87.266 192.877 87.028 191.944 86.552 191.3C86.0853 190.656 85.46 190.334 84.676 190.334C83.8827 190.334 83.248 190.656 82.772 191.3C82.3053 191.944 82.072 192.877 82.072 194.1C82.072 195.323 82.3053 196.256 82.772 196.9C83.248 197.544 83.8827 197.866 84.676 197.866ZM93.0069 189.2V199H91.6209V190.418H89.4089V189.2H93.0069ZM102.466 187.212H103.684L99.0643 200.4H97.8463L102.466 187.212ZM110.63 189.2V199H109.244V190.418H107.032V189.2H110.63ZM116.778 199.112C116.003 199.112 115.312 198.916 114.706 198.524C114.108 198.123 113.637 197.544 113.292 196.788C112.946 196.032 112.774 195.136 112.774 194.1C112.774 193.064 112.946 192.168 113.292 191.412C113.637 190.656 114.108 190.082 114.706 189.69C115.312 189.289 116.003 189.088 116.778 189.088C117.543 189.088 118.224 189.289 118.822 189.69C119.428 190.082 119.904 190.656 120.25 191.412C120.595 192.168 120.768 193.064 120.768 194.1C120.768 195.136 120.595 196.032 120.25 196.788C119.904 197.544 119.428 198.123 118.822 198.524C118.224 198.916 117.543 199.112 116.778 199.112ZM116.778 197.866C117.562 197.866 118.187 197.544 118.654 196.9C119.13 196.256 119.368 195.323 119.368 194.1C119.368 192.877 119.13 191.944 118.654 191.3C118.187 190.656 117.562 190.334 116.778 190.334C115.984 190.334 115.35 190.656 114.874 191.3C114.407 191.944 114.174 192.877 114.174 194.1C114.174 195.323 114.407 196.256 114.874 196.9C115.35 197.544 115.984 197.866 116.778 197.866ZM125.689 197.516C125.867 197.637 126.109 197.754 126.417 197.866C126.735 197.969 127.108 198.02 127.537 198.02C127.976 198.02 128.335 197.95 128.615 197.81C128.895 197.661 129.11 197.441 129.259 197.152C129.409 196.853 129.511 196.475 129.567 196.018C129.623 195.561 129.651 195.019 129.651 194.394V189.06H130.911V194.114C130.911 194.851 130.874 195.528 130.799 196.144C130.725 196.76 130.575 197.297 130.351 197.754C130.127 198.202 129.791 198.547 129.343 198.79C128.905 199.033 128.317 199.154 127.579 199.154C127.113 199.154 126.702 199.103 126.347 199C125.993 198.897 125.666 198.743 125.367 198.538L125.689 197.516ZM132.291 196.886C132.291 196.419 132.422 196.018 132.683 195.682C132.954 195.337 133.322 195.071 133.789 194.884C134.256 194.697 134.797 194.604 135.413 194.604C135.74 194.604 136.085 194.632 136.449 194.688C136.813 194.735 137.135 194.809 137.415 194.912V194.38C137.415 193.82 137.247 193.381 136.911 193.064C136.575 192.737 136.099 192.574 135.483 192.574C135.082 192.574 134.694 192.649 134.321 192.798C133.957 192.938 133.57 193.143 133.159 193.414L132.711 192.546C133.187 192.219 133.663 191.977 134.139 191.818C134.615 191.65 135.11 191.566 135.623 191.566C136.556 191.566 137.294 191.827 137.835 192.35C138.376 192.863 138.647 193.582 138.647 194.506V197.6C138.647 197.749 138.675 197.861 138.731 197.936C138.796 198.001 138.899 198.039 139.039 198.048V199C138.918 199.019 138.81 199.033 138.717 199.042C138.633 199.051 138.563 199.056 138.507 199.056C138.218 199.056 137.998 198.977 137.849 198.818C137.709 198.659 137.63 198.491 137.611 198.314L137.583 197.852C137.266 198.263 136.85 198.58 136.337 198.804C135.824 199.028 135.315 199.14 134.811 199.14C134.326 199.14 133.892 199.042 133.509 198.846C133.126 198.641 132.828 198.37 132.613 198.034C132.398 197.689 132.291 197.306 132.291 196.886ZM137.051 197.404C137.163 197.273 137.252 197.143 137.317 197.012C137.382 196.872 137.415 196.755 137.415 196.662V195.752C137.126 195.64 136.822 195.556 136.505 195.5C136.188 195.435 135.875 195.402 135.567 195.402C134.942 195.402 134.433 195.528 134.041 195.78C133.658 196.023 133.467 196.359 133.467 196.788C133.467 197.021 133.528 197.25 133.649 197.474C133.78 197.689 133.966 197.866 134.209 198.006C134.461 198.146 134.769 198.216 135.133 198.216C135.516 198.216 135.88 198.141 136.225 197.992C136.57 197.833 136.846 197.637 137.051 197.404ZM146.959 199H145.727V194.912C145.727 194.137 145.606 193.573 145.363 193.218C145.13 192.854 144.77 192.672 144.285 192.672C143.949 192.672 143.613 192.756 143.277 192.924C142.95 193.092 142.656 193.321 142.395 193.61C142.143 193.89 141.961 194.217 141.849 194.59V199H140.617V191.692H141.737V193.26C141.933 192.915 142.185 192.616 142.493 192.364C142.801 192.112 143.151 191.916 143.543 191.776C143.935 191.636 144.346 191.566 144.775 191.566C145.195 191.566 145.545 191.645 145.825 191.804C146.114 191.953 146.338 192.168 146.497 192.448C146.665 192.719 146.782 193.041 146.847 193.414C146.922 193.787 146.959 194.193 146.959 194.632V199Z" fill="#808B9E"/>
<path d="M221.71 189.2V199H220.324V190.418H218.112V189.2H221.71ZM227.858 199.112C227.083 199.112 226.392 198.916 225.786 198.524C225.188 198.123 224.717 197.544 224.372 196.788C224.026 196.032 223.854 195.136 223.854 194.1C223.854 193.064 224.026 192.168 224.372 191.412C224.717 190.656 225.188 190.082 225.786 189.69C226.392 189.289 227.083 189.088 227.858 189.088C228.623 189.088 229.304 189.289 229.902 189.69C230.508 190.082 230.984 190.656 231.33 191.412C231.675 192.168 231.848 193.064 231.848 194.1C231.848 195.136 231.675 196.032 231.33 196.788C230.984 197.544 230.508 198.123 229.902 198.524C229.304 198.916 228.623 199.112 227.858 199.112ZM227.858 197.866C228.642 197.866 229.267 197.544 229.734 196.9C230.21 196.256 230.448 195.323 230.448 194.1C230.448 192.877 230.21 191.944 229.734 191.3C229.267 190.656 228.642 190.334 227.858 190.334C227.064 190.334 226.43 190.656 225.954 191.3C225.487 191.944 225.254 192.877 225.254 194.1C225.254 195.323 225.487 196.256 225.954 196.9C226.43 197.544 227.064 197.866 227.858 197.866ZM240.507 187.212H241.725L237.105 200.4H235.887L240.507 187.212ZM252.521 197.782V199H245.479V198.048L249.469 194.198C249.954 193.731 250.281 193.33 250.449 192.994C250.617 192.649 250.701 192.303 250.701 191.958C250.701 191.445 250.519 191.048 250.155 190.768C249.8 190.479 249.287 190.334 248.615 190.334C247.532 190.334 246.697 190.689 246.109 191.398L245.157 190.572C245.54 190.105 246.039 189.741 246.655 189.48C247.28 189.219 247.976 189.088 248.741 189.088C249.768 189.088 250.584 189.335 251.191 189.83C251.798 190.315 252.101 190.978 252.101 191.818C252.101 192.341 251.989 192.835 251.765 193.302C251.541 193.769 251.116 194.301 250.491 194.898L247.495 197.782H252.521ZM257.635 199.112C256.86 199.112 256.17 198.916 255.563 198.524C254.966 198.123 254.494 197.544 254.149 196.788C253.804 196.032 253.631 195.136 253.631 194.1C253.631 193.064 253.804 192.168 254.149 191.412C254.494 190.656 254.966 190.082 255.563 189.69C256.17 189.289 256.86 189.088 257.635 189.088C258.4 189.088 259.082 189.289 259.679 189.69C260.286 190.082 260.762 190.656 261.107 191.412C261.452 192.168 261.625 193.064 261.625 194.1C261.625 195.136 261.452 196.032 261.107 196.788C260.762 197.544 260.286 198.123 259.679 198.524C259.082 198.916 258.4 199.112 257.635 199.112ZM257.635 197.866C258.419 197.866 259.044 197.544 259.511 196.9C259.987 196.256 260.225 195.323 260.225 194.1C260.225 192.877 259.987 191.944 259.511 191.3C259.044 190.656 258.419 190.334 257.635 190.334C256.842 190.334 256.207 190.656 255.731 191.3C255.264 191.944 255.031 192.877 255.031 194.1C255.031 195.323 255.264 196.256 255.731 196.9C256.207 197.544 256.842 197.866 257.635 197.866ZM266.547 197.516C266.724 197.637 266.967 197.754 267.275 197.866C267.592 197.969 267.965 198.02 268.395 198.02C268.833 198.02 269.193 197.95 269.473 197.81C269.753 197.661 269.967 197.441 270.117 197.152C270.266 196.853 270.369 196.475 270.425 196.018C270.481 195.561 270.509 195.019 270.509 194.394V189.06H271.769V194.114C271.769 194.851 271.731 195.528 271.657 196.144C271.582 196.76 271.433 197.297 271.209 197.754C270.985 198.202 270.649 198.547 270.201 198.79C269.762 199.033 269.174 199.154 268.437 199.154C267.97 199.154 267.559 199.103 267.205 199C266.85 198.897 266.523 198.743 266.225 198.538L266.547 197.516ZM273.149 196.886C273.149 196.419 273.279 196.018 273.541 195.682C273.811 195.337 274.18 195.071 274.647 194.884C275.113 194.697 275.655 194.604 276.271 194.604C276.597 194.604 276.943 194.632 277.307 194.688C277.671 194.735 277.993 194.809 278.273 194.912V194.38C278.273 193.82 278.105 193.381 277.769 193.064C277.433 192.737 276.957 192.574 276.341 192.574C275.939 192.574 275.552 192.649 275.179 192.798C274.815 192.938 274.427 193.143 274.017 193.414L273.569 192.546C274.045 192.219 274.521 191.977 274.997 191.818C275.473 191.65 275.967 191.566 276.481 191.566C277.414 191.566 278.151 191.827 278.693 192.35C279.234 192.863 279.505 193.582 279.505 194.506V197.6C279.505 197.749 279.533 197.861 279.589 197.936C279.654 198.001 279.757 198.039 279.897 198.048V199C279.775 199.019 279.668 199.033 279.575 199.042C279.491 199.051 279.421 199.056 279.365 199.056C279.075 199.056 278.856 198.977 278.707 198.818C278.567 198.659 278.487 198.491 278.469 198.314L278.441 197.852C278.123 198.263 277.708 198.58 277.195 198.804C276.681 199.028 276.173 199.14 275.669 199.14C275.183 199.14 274.749 199.042 274.367 198.846C273.984 198.641 273.685 198.37 273.471 198.034C273.256 197.689 273.149 197.306 273.149 196.886ZM277.909 197.404C278.021 197.273 278.109 197.143 278.175 197.012C278.24 196.872 278.273 196.755 278.273 196.662V195.752C277.983 195.64 277.68 195.556 277.363 195.5C277.045 195.435 276.733 195.402 276.425 195.402C275.799 195.402 275.291 195.528 274.899 195.78C274.516 196.023 274.325 196.359 274.325 196.788C274.325 197.021 274.385 197.25 274.507 197.474C274.637 197.689 274.824 197.866 275.067 198.006C275.319 198.146 275.627 198.216 275.991 198.216C276.373 198.216 276.737 198.141 277.083 197.992C277.428 197.833 277.703 197.637 277.909 197.404ZM287.816 199H286.584V194.912C286.584 194.137 286.463 193.573 286.22 193.218C285.987 192.854 285.628 192.672 285.142 192.672C284.806 192.672 284.47 192.756 284.134 192.924C283.808 193.092 283.514 193.321 283.252 193.61C283 193.89 282.818 194.217 282.706 194.59V199H281.474V191.692H282.594V193.26C282.79 192.915 283.042 192.616 283.35 192.364C283.658 192.112 284.008 191.916 284.4 191.776C284.792 191.636 285.203 191.566 285.632 191.566C286.052 191.566 286.402 191.645 286.682 191.804C286.972 191.953 287.196 192.168 287.354 192.448C287.522 192.719 287.639 193.041 287.704 193.414C287.779 193.787 287.816 194.193 287.816 194.632V199Z" fill="#808B9E"/>
<path d="M366.56 197.782V199H359.518V198.048L363.508 194.198C363.993 193.731 364.32 193.33 364.488 192.994C364.656 192.649 364.74 192.303 364.74 191.958C364.74 191.445 364.558 191.048 364.194 190.768C363.839 190.479 363.326 190.334 362.654 190.334C361.571 190.334 360.736 190.689 360.148 191.398L359.196 190.572C359.579 190.105 360.078 189.741 360.694 189.48C361.319 189.219 362.015 189.088 362.78 189.088C363.807 189.088 364.623 189.335 365.23 189.83C365.837 190.315 366.14 190.978 366.14 191.818C366.14 192.341 366.028 192.835 365.804 193.302C365.58 193.769 365.155 194.301 364.53 194.898L361.534 197.782H366.56ZM371.674 199.112C370.899 199.112 370.209 198.916 369.602 198.524C369.005 198.123 368.533 197.544 368.188 196.788C367.843 196.032 367.67 195.136 367.67 194.1C367.67 193.064 367.843 192.168 368.188 191.412C368.533 190.656 369.005 190.082 369.602 189.69C370.209 189.289 370.899 189.088 371.674 189.088C372.439 189.088 373.121 189.289 373.718 189.69C374.325 190.082 374.801 190.656 375.146 191.412C375.491 192.168 375.664 193.064 375.664 194.1C375.664 195.136 375.491 196.032 375.146 196.788C374.801 197.544 374.325 198.123 373.718 198.524C373.121 198.916 372.439 199.112 371.674 199.112ZM371.674 197.866C372.458 197.866 373.083 197.544 373.55 196.9C374.026 196.256 374.264 195.323 374.264 194.1C374.264 192.877 374.026 191.944 373.55 191.3C373.083 190.656 372.458 190.334 371.674 190.334C370.881 190.334 370.246 190.656 369.77 191.3C369.303 191.944 369.07 192.877 369.07 194.1C369.07 195.323 369.303 196.256 369.77 196.9C370.246 197.544 370.881 197.866 371.674 197.866ZM384.324 187.212H385.542L380.922 200.4H379.704L384.324 187.212ZM393.201 193.316C394.163 193.409 394.895 193.708 395.399 194.212C395.903 194.707 396.155 195.341 396.155 196.116C396.155 196.676 396.015 197.185 395.735 197.642C395.455 198.09 395.035 198.449 394.475 198.72C393.925 198.981 393.248 199.112 392.445 199.112C391.745 199.112 391.073 199.009 390.429 198.804C389.785 198.589 389.258 198.295 388.847 197.922L389.491 196.816C389.827 197.133 390.257 197.39 390.779 197.586C391.302 197.773 391.857 197.866 392.445 197.866C393.173 197.866 393.738 197.712 394.139 197.404C394.55 197.096 394.755 196.671 394.755 196.13C394.755 195.589 394.555 195.169 394.153 194.87C393.752 194.571 393.145 194.422 392.333 194.422H391.549V193.442L394.013 190.418H389.295V189.2H395.763V190.152L393.201 193.316ZM401.465 199.112C400.69 199.112 400 198.916 399.393 198.524C398.796 198.123 398.324 197.544 397.979 196.788C397.634 196.032 397.461 195.136 397.461 194.1C397.461 193.064 397.634 192.168 397.979 191.412C398.324 190.656 398.796 190.082 399.393 189.69C400 189.289 400.69 189.088 401.465 189.088C402.23 189.088 402.912 189.289 403.509 189.69C404.116 190.082 404.592 190.656 404.937 191.412C405.282 192.168 405.455 193.064 405.455 194.1C405.455 195.136 405.282 196.032 404.937 196.788C404.592 197.544 404.116 198.123 403.509 198.524C402.912 198.916 402.23 199.112 401.465 199.112ZM401.465 197.866C402.249 197.866 402.874 197.544 403.341 196.9C403.817 196.256 404.055 195.323 404.055 194.1C404.055 192.877 403.817 191.944 403.341 191.3C402.874 190.656 402.249 190.334 401.465 190.334C400.672 190.334 400.037 190.656 399.561 191.3C399.094 191.944 398.861 192.877 398.861 194.1C398.861 195.323 399.094 196.256 399.561 196.9C400.037 197.544 400.672 197.866 401.465 197.866ZM410.377 197.516C410.554 197.637 410.797 197.754 411.105 197.866C411.422 197.969 411.795 198.02 412.225 198.02C412.663 198.02 413.023 197.95 413.303 197.81C413.583 197.661 413.797 197.441 413.947 197.152C414.096 196.853 414.199 196.475 414.255 196.018C414.311 195.561 414.339 195.019 414.339 194.394V189.06H415.599V194.114C415.599 194.851 415.561 195.528 415.487 196.144C415.412 196.76 415.263 197.297 415.039 197.754C414.815 198.202 414.479 198.547 414.031 198.79C413.592 199.033 413.004 199.154 412.267 199.154C411.8 199.154 411.389 199.103 411.035 199C410.68 198.897 410.353 198.743 410.055 198.538L410.377 197.516ZM416.979 196.886C416.979 196.419 417.109 196.018 417.371 195.682C417.641 195.337 418.01 195.071 418.477 194.884C418.943 194.697 419.485 194.604 420.101 194.604C420.427 194.604 420.773 194.632 421.137 194.688C421.501 194.735 421.823 194.809 422.103 194.912V194.38C422.103 193.82 421.935 193.381 421.599 193.064C421.263 192.737 420.787 192.574 420.171 192.574C419.769 192.574 419.382 192.649 419.009 192.798C418.645 192.938 418.257 193.143 417.847 193.414L417.399 192.546C417.875 192.219 418.351 191.977 418.827 191.818C419.303 191.65 419.797 191.566 420.311 191.566C421.244 191.566 421.981 191.827 422.523 192.35C423.064 192.863 423.335 193.582 423.335 194.506V197.6C423.335 197.749 423.363 197.861 423.419 197.936C423.484 198.001 423.587 198.039 423.727 198.048V199C423.605 199.019 423.498 199.033 423.405 199.042C423.321 199.051 423.251 199.056 423.195 199.056C422.905 199.056 422.686 198.977 422.537 198.818C422.397 198.659 422.317 198.491 422.299 198.314L422.271 197.852C421.953 198.263 421.538 198.58 421.025 198.804C420.511 199.028 420.003 199.14 419.499 199.14C419.013 199.14 418.579 199.042 418.197 198.846C417.814 198.641 417.515 198.37 417.301 198.034C417.086 197.689 416.979 197.306 416.979 196.886ZM421.739 197.404C421.851 197.273 421.939 197.143 422.005 197.012C422.07 196.872 422.103 196.755 422.103 196.662V195.752C421.813 195.64 421.51 195.556 421.193 195.5C420.875 195.435 420.563 195.402 420.255 195.402C419.629 195.402 419.121 195.528 418.729 195.78C418.346 196.023 418.155 196.359 418.155 196.788C418.155 197.021 418.215 197.25 418.337 197.474C418.467 197.689 418.654 197.866 418.897 198.006C419.149 198.146 419.457 198.216 419.821 198.216C420.203 198.216 420.567 198.141 420.913 197.992C421.258 197.833 421.533 197.637 421.739 197.404ZM431.647 199H430.415V194.912C430.415 194.137 430.293 193.573 430.051 193.218C429.817 192.854 429.458 192.672 428.973 192.672C428.637 192.672 428.301 192.756 427.965 192.924C427.638 193.092 427.344 193.321 427.083 193.61C426.831 193.89 426.649 194.217 426.537 194.59V199H425.305V191.692H426.425V193.26C426.621 192.915 426.873 192.616 427.181 192.364C427.489 192.112 427.839 191.916 428.231 191.776C428.623 191.636 429.033 191.566 429.463 191.566C429.883 191.566 430.233 191.645 430.513 191.804C430.802 191.953 431.026 192.168 431.185 192.448C431.353 192.719 431.469 193.041 431.535 193.414C431.609 193.787 431.647 194.193 431.647 194.632V199Z" fill="#808B9E"/>
<path d="M82.5 134C93.3333 119.5 116.5 94 143 98.5C171.709 103.375 194.5 103 203.5 94.5C212.5 86 226.5 68 243 66.5C259.5 65 282.5 68.5 314 98.5C339.2 122.5 356.5 109.5 366 98.5C376.5 84.5 391.7 66.5 406.5 66.5C421.3 66.5 438.333 80.1667 445 87" stroke="#036666" stroke-width="3" stroke-linecap="round" stroke-linejoin="round"/>
<path opacity="0.2" d="M143 98.5C119.467 94.5039 98.563 114.166 86.5902 128.773C84.6414 131.151 83.667 132.34 83.0835 133.972C82.5 135.604 82.5 137.285 82.5 140.646V149C82.5 158.428 82.5 163.142 85.4289 166.071C88.3579 169 93.0719 169 102.5 169H425C434.428 169 439.142 169 442.071 166.071C445 163.142 445 158.428 445 149V95.14C445 91.0211 445 88.9616 444.049 86.9396C443.098 84.9176 441.729 83.7848 438.992 81.5195L438.992 81.5193C430.702 74.6578 417.935 66.5 406.5 66.5C391.7 66.5 376.5 84.5 366 98.5C356.5 109.5 339.2 122.5 314 98.5C282.5 68.5 259.5 65 243 66.5C226.5 68 212.5 86 203.5 94.5C194.5 103 171.709 103.375 143 98.5Z" fill="url(#paint0_linear_231_13)"/>
<path d="M105 138C109.333 107.167 123.8 46.8 155 40C194 31.5 204.5 55.4999 244 71.4999C283.5 87.4999 323.751 65.9173 338 37C355 2.49996 370 -7 420 10.5" stroke="#F4F5F7" stroke-width="3" stroke-linecap="round" stroke-linejoin="round"/>
<path opacity="0.2" d="M155.159 40.0549C123.86 46.8511 109.347 107.184 105 138H421V10.5715C370.841 -6.91871 355.794 2.57593 338.74 37.0566C324.445 65.9577 284.067 87.5283 244.441 71.5373C204.816 55.5462 194.283 31.5597 155.159 40.0549Z" fill="url(#paint1_linear_231_13)"/>
<defs>
<linearGradient id="paint0_linear_231_13" x1="263.75" y1="66.2131" x2="263.75" y2="169" gradientUnits="userSpaceOnUse">
<stop stop-color="#036666"/>
<stop offset="1" stop-color="#036666" stop-opacity="0"/>
</linearGradient>
<linearGradient id="paint1_linear_231_13" x1="263" y1="2" x2="263" y2="138" gradientUnits="userSpaceOnUse">
<stop stop-color="#F4F5F7"/>
<stop offset="1" stop-color="#F4F5F7" stop-opacity="0"/>
</linearGradient>
</defs>
</svg>
