<svg xmlns="http://www.w3.org/2000/svg" width="175" height="48" viewBox="0 0 175 48" fill="none">
  <rect width="48" height="48" rx="11.8519" fill="#036666"/>
  <mask id="mask0_432_19330" style="mask-type:alpha" maskUnits="userSpaceOnUse" x="7" y="7" width="34" height="34">
    <rect x="7.10938" y="7.11111" width="33.7778" height="33.7778" fill="#9D6C6C"/>
  </mask>
  <g mask="url(#mask0_432_19330)">
    <path d="M12.8235 25.1977V14.2643L9.77734 16.0217V26.895C9.77734 29.3882 9.77734 30.6348 10.3697 31.6618C10.9621 32.6887 12.0411 33.3129 14.1993 34.5612L21.9618 39.0513V9.00827L18.9754 10.7404V33.855L17.2778 32.8826C15.1043 31.6376 14.0175 31.015 13.4205 29.985C12.8235 28.955 12.8235 27.7025 12.8235 25.1977Z" fill="white" stroke="white" stroke-width="0.846561"/>
    <path d="M26.5293 39.111V8.88882L37.1327 15.1171C38.1862 15.7358 38.8332 16.8662 38.8332 18.088V20.0105C38.8332 20.8516 38.1513 21.5335 37.3101 21.5335C36.469 21.5335 35.7871 20.8516 35.7871 20.0105V17.7285L29.5754 14.0851V33.855L35.7871 30.3311V27.9297C35.7871 27.0885 36.469 26.4066 37.3101 26.4066C38.1513 26.4066 38.8332 27.0885 38.8332 27.9297V29.9552C38.8332 31.2227 38.1572 32.394 37.0596 33.028L26.5293 39.111Z" fill="white" stroke="white" stroke-width="0.846561"/>
  </g>
  <path d="M69.2454 14.442C69.2454 13.938 69.3534 13.605 69.5694 13.443C69.7854 13.281 70.2354 13.2 70.9194 13.2C71.6034 13.2 72.0714 13.308 72.3234 13.524C72.5934 13.74 72.7374 14.262 72.7554 15.09L73.0794 22.353C73.0794 22.623 73.0794 22.893 73.0794 23.163C73.0794 25.953 72.8904 28.167 72.5124 29.805C72.1524 31.443 71.5224 32.613 70.6224 33.315C69.7404 34.017 68.4714 34.368 66.8154 34.368C64.4034 34.368 62.7384 33.612 61.8204 32.1C60.9024 30.588 60.4434 27.87 60.4434 23.946V15.036C60.4434 14.262 60.5514 13.767 60.7674 13.551C61.0014 13.317 61.4694 13.2 62.1714 13.2C62.8734 13.2 63.3504 13.326 63.6024 13.578C63.8544 13.812 63.9984 14.388 64.0344 15.306L64.4124 22.299C64.4124 26.853 64.5924 29.562 64.9524 30.426C65.0964 30.804 65.3034 30.993 65.5734 30.993C66.2034 30.993 66.6894 30.984 67.0314 30.966C67.3734 30.93 67.7064 30.822 68.0304 30.642C68.3544 30.444 68.5794 30.219 68.7054 29.967C68.8314 29.715 68.9484 29.292 69.0564 28.698C69.1824 27.87 69.2454 26.286 69.2454 23.946V14.442Z" fill="#BDBEC4"/>
  <path d="M78.5551 21.624C80.0311 20.616 81.0031 20.112 81.4711 20.112C81.9571 20.112 82.3891 20.202 82.7671 20.382C83.1631 20.562 83.4511 20.742 83.6311 20.922L83.8741 21.165C83.6041 22.317 83.3971 23.037 83.2531 23.325C83.1091 23.613 82.9111 23.757 82.6591 23.757C82.4251 23.757 82.1191 23.658 81.7411 23.46C81.3631 23.262 81.0211 23.163 80.7151 23.163C80.4091 23.163 79.7971 23.442 78.8791 24V33.936C78.8791 34.044 78.8611 34.116 78.8251 34.152C78.7531 34.296 78.4201 34.368 77.8261 34.368C77.2321 34.368 76.6741 34.323 76.1521 34.233C75.6481 34.143 75.3961 34.044 75.3961 33.936V20.544C75.3961 20.256 75.8011 20.112 76.6111 20.112C77.4211 20.112 77.8891 20.256 78.0151 20.544V20.598L78.5551 21.624Z" fill="#BDBEC4"/>
  <path d="M90.2505 20.112C92.4285 20.112 93.9045 20.598 94.6785 21.57C95.4705 22.524 95.8665 24.351 95.8665 27.051C95.8665 29.751 95.5515 31.65 94.9215 32.748C94.3095 33.828 93.3375 34.368 92.0055 34.368C91.0875 34.368 89.9895 34.26 88.7115 34.044L88.0905 33.936C87.6045 34.224 86.6865 34.368 85.3365 34.368V13.632C85.3365 13.344 85.6515 13.2 86.2815 13.2C86.9115 13.2 87.4335 13.245 87.8475 13.335C88.2615 13.407 88.4775 13.506 88.4955 13.632L88.9545 20.112H90.2505ZM88.9545 22.704V31.776H91.5465C91.7445 31.776 91.8615 31.398 91.8975 30.642C91.9515 29.868 91.9785 28.626 91.9785 26.916C91.9785 25.206 91.8525 24.081 91.6005 23.541C91.3665 22.983 90.9165 22.704 90.2505 22.704H88.9545Z" fill="#BDBEC4"/>
  <path d="M103.701 33.099C102.765 33.945 101.928 34.368 101.19 34.368C100.47 34.368 99.8852 34.314 99.4352 34.206C98.9852 34.116 98.5802 33.909 98.2202 33.585C97.8602 33.243 97.6082 32.757 97.4642 32.127C97.3202 31.497 97.2482 30.66 97.2482 29.616C97.2482 28.158 97.9592 27.159 99.3812 26.619L103.242 25.62C103.224 24.45 103.107 23.694 102.891 23.352C102.675 23.01 102.207 22.839 101.487 22.839C100.767 22.839 100.146 22.956 99.6242 23.19L98.6792 23.568H98.6522C98.4902 23.658 98.3462 23.586 98.2202 23.352C97.8962 22.668 97.7342 22.137 97.7342 21.759C97.7342 21.363 97.7612 21.147 97.8152 21.111C97.8872 21.057 97.9232 21.021 97.9232 21.003C98.8232 20.409 99.9842 20.112 101.406 20.112C102.846 20.112 103.953 20.301 104.727 20.679C105.501 21.057 106.059 21.75 106.401 22.758C106.761 23.748 106.941 25.224 106.941 27.186L106.887 33.936C106.887 34.044 106.869 34.116 106.833 34.152C106.761 34.296 106.419 34.368 105.807 34.368C104.691 34.368 104.133 34.224 104.133 33.936L103.701 33.099ZM100.245 29.67C100.245 30.966 100.623 31.65 101.379 31.722C101.901 31.722 102.279 31.632 102.513 31.452C103.017 31.11 103.269 29.832 103.269 27.618C102.333 27.744 101.595 28.005 101.055 28.401C100.515 28.779 100.245 29.202 100.245 29.67Z" fill="#BDBEC4"/>
  <path d="M116.191 20.112C117.523 20.112 118.495 20.526 119.107 21.354C119.737 22.182 120.052 23.64 120.052 25.728V33.936C120.052 34.044 120.043 34.116 120.025 34.152C119.935 34.296 119.584 34.368 118.972 34.368C118.378 34.368 117.766 34.323 117.136 34.233C116.506 34.143 116.191 34.044 116.191 33.936L116.164 25.728C116.164 23.712 116.02 22.704 115.732 22.704C115.084 22.704 114.22 23.028 113.14 23.676V33.936C113.14 34.044 113.131 34.116 113.113 34.152C113.023 34.296 112.672 34.368 112.06 34.368C111.466 34.368 110.845 34.323 110.197 34.233C109.567 34.143 109.252 34.044 109.252 33.936V20.544C109.252 20.256 109.612 20.112 110.332 20.112C111.466 20.112 112.114 20.256 112.276 20.544C112.276 20.58 112.285 20.598 112.303 20.598L112.816 21.624C114.328 20.616 115.453 20.112 116.191 20.112Z" fill="#BDBEC4"/>
  <path d="M140.164 30.75C140.614 30.75 140.839 31.038 140.839 31.614C140.839 32.19 140.83 32.622 140.812 32.91C140.74 33.558 140.452 33.927 139.948 34.017C138.346 34.251 137.158 34.368 136.384 34.368C133.702 34.368 131.857 33.612 130.849 32.1C129.841 30.588 129.337 27.861 129.337 23.919C129.337 21.039 129.553 18.843 129.985 17.331C130.435 15.801 131.146 14.73 132.118 14.118C133.108 13.506 134.575 13.2 136.519 13.2C138.481 13.2 139.912 13.506 140.812 14.118C140.992 14.244 141.082 14.397 141.082 14.577C141.082 14.757 140.992 15.099 140.812 15.603C140.65 16.089 140.488 16.44 140.326 16.656C140.182 16.854 140.029 16.953 139.867 16.953C139.705 16.953 139.579 16.944 139.489 16.926C138.139 16.656 136.969 16.521 135.979 16.521C135.007 16.521 134.368 17.061 134.062 18.141C133.774 19.221 133.63 20.976 133.63 23.406C133.63 25.818 133.693 27.501 133.819 28.455C133.945 29.409 134.179 30.075 134.521 30.453C134.863 30.831 135.403 31.02 136.141 31.02C136.897 31.02 137.743 30.975 138.679 30.885C139.633 30.795 140.128 30.75 140.164 30.75Z" fill="#BDBEC4"/>
  <path d="M149.993 20.112C151.325 20.112 152.297 20.526 152.909 21.354C153.539 22.182 153.854 23.64 153.854 25.728V33.936C153.854 34.044 153.845 34.116 153.827 34.152C153.737 34.296 153.386 34.368 152.774 34.368C152.18 34.368 151.568 34.323 150.938 34.233C150.308 34.143 149.993 34.044 149.993 33.936L149.966 25.728C149.966 23.712 149.822 22.704 149.534 22.704C148.886 22.704 148.022 23.028 146.942 23.676V33.936C146.942 34.044 146.933 34.116 146.915 34.152C146.825 34.296 146.474 34.368 145.862 34.368C145.268 34.368 144.647 34.323 143.999 34.233C143.369 34.143 143.054 34.044 143.054 33.936V13.632C143.054 13.344 143.369 13.2 143.999 13.2C144.647 13.2 145.205 13.245 145.673 13.335C146.141 13.407 146.384 13.506 146.402 13.632L146.888 21.435C148.256 20.553 149.291 20.112 149.993 20.112Z" fill="#BDBEC4"/>
  <path d="M161.762 33.099C160.826 33.945 159.989 34.368 159.251 34.368C158.531 34.368 157.946 34.314 157.496 34.206C157.046 34.116 156.641 33.909 156.281 33.585C155.921 33.243 155.669 32.757 155.525 32.127C155.381 31.497 155.309 30.66 155.309 29.616C155.309 28.158 156.02 27.159 157.442 26.619L161.303 25.62C161.285 24.45 161.168 23.694 160.952 23.352C160.736 23.01 160.268 22.839 159.548 22.839C158.828 22.839 158.207 22.956 157.685 23.19L156.74 23.568H156.713C156.551 23.658 156.407 23.586 156.281 23.352C155.957 22.668 155.795 22.137 155.795 21.759C155.795 21.363 155.822 21.147 155.876 21.111C155.948 21.057 155.984 21.021 155.984 21.003C156.884 20.409 158.045 20.112 159.467 20.112C160.907 20.112 162.014 20.301 162.788 20.679C163.562 21.057 164.12 21.75 164.462 22.758C164.822 23.748 165.002 25.224 165.002 27.186L164.948 33.936C164.948 34.044 164.93 34.116 164.894 34.152C164.822 34.296 164.48 34.368 163.868 34.368C162.752 34.368 162.194 34.224 162.194 33.936L161.762 33.099ZM158.306 29.67C158.306 30.966 158.684 31.65 159.44 31.722C159.962 31.722 160.34 31.632 160.574 31.452C161.078 31.11 161.33 29.832 161.33 27.618C160.394 27.744 159.656 28.005 159.116 28.401C158.576 28.779 158.306 29.202 158.306 29.67Z" fill="#BDBEC4"/>
  <path d="M168.133 22.704H165.973C165.757 22.704 165.64 22.659 165.622 22.569C165.586 22.461 165.568 22.344 165.568 22.218C165.568 21.444 165.703 21.03 165.973 20.976L168.133 20.544L169.645 17.493C169.861 17.223 170.275 17.088 170.887 17.088C171.049 17.088 171.202 17.412 171.346 18.06C171.49 18.708 171.643 19.536 171.805 20.544H174.397C174.685 20.544 174.829 20.904 174.829 21.624C174.829 22.344 174.685 22.704 174.397 22.704H171.778V31.29L172.21 34.341V34.368C172.228 34.476 172.228 34.548 172.21 34.584C172.12 34.728 171.67 34.8 170.86 34.8C170.05 34.8 169.564 34.638 169.402 34.314L168.133 31.749V22.704Z" fill="#BDBEC4"/>
</svg>