<svg width="216" height="138" viewBox="0 0 216 138" fill="none" xmlns="http://www.w3.org/2000/svg">
<path fill-rule="evenodd" clip-rule="evenodd" d="M205.896 55.8544C201.629 56.3704 197.411 57.0646 193.23 57.8943C192.285 54.4443 191.011 52.8802 189.719 52.1904C189.553 51.0399 189.315 49.8109 189.003 48.5106C187.655 42.8855 185.59 41.6019 183.76 41.37L184.165 41.3138L184.165 41.3138C186.405 41.0029 188.645 40.6922 190.861 40.3055C194.427 39.6818 195.409 34.253 193.258 25.9454C191.331 18.4919 188.234 18.7593 186.119 18.9419L186.119 18.9419C185.971 18.9547 185.827 18.9671 185.689 18.9764C183.332 19.1309 180.995 19.3633 178.674 19.6613C179.61 17.2113 179.483 13.1441 178.167 7.92973C176.286 0.464916 173.297 0.682847 171.256 0.831631C171.111 0.842241 170.97 0.852495 170.835 0.859592C157.85 1.54098 145.484 4.75645 133.192 8.22334C129.447 9.28014 124.155 10.4814 120.531 11.3043C119.012 11.649 117.787 11.9272 117.09 12.1007C116.829 12.1666 116.607 12.3334 116.405 12.4854C116.225 12.6212 116.061 12.7451 115.898 12.7745C110.28 13.7419 104.505 15.3886 98.7263 17.0364C95.5916 17.9302 92.4558 18.8244 89.3432 19.6107C87.7279 20.0175 86.1794 20.687 84.6322 21.356C83.9424 21.6543 83.253 21.9524 82.5579 22.2271C80.926 22.1652 79.5313 22.9506 78.1416 23.7332C77.4827 24.1043 76.825 24.4746 76.1436 24.7539C70.4514 27.086 64.5461 28.653 58.6388 30.2206C56.4854 30.792 54.3317 31.3635 52.1879 31.9722C48.6451 32.9787 45.0977 33.9704 41.5502 34.9621C32.0103 37.6291 22.4686 40.2965 13.0089 43.2545C12.3465 43.4602 11.6419 43.4985 10.9399 43.5367C8.83076 43.6513 6.74361 43.7647 5.88454 48.4138C5.86823 48.4936 5.82807 48.6249 5.80796 48.6906L5.80792 48.6908C5.47212 49.7639 5.80898 51.263 6.1453 52.7597C6.30946 53.4902 6.47348 54.2202 6.5591 54.8997C7.75472 64.3154 9.44244 66.9552 12.6254 64.677C13.2481 64.2309 14.0585 64.3249 14.8447 64.416C14.9291 64.4258 15.0134 64.4355 15.097 64.4446C16.8247 64.6318 19.3483 64.1069 21.2086 63.72C21.506 63.6581 21.7864 63.5998 22.0439 63.5485C23.176 63.3209 24.2588 62.6747 25.3182 62.0424C26.3682 61.4158 27.3953 60.8028 28.4249 60.6245C31.1764 60.1536 33.9603 59.8117 36.7508 59.4976C31.8588 60.9341 26.977 62.407 22.1146 63.9524C21.4277 64.1704 20.6977 64.2201 19.9701 64.2697C17.7894 64.4183 15.6305 64.5653 14.722 69.2364C14.7147 69.298 14.6836 69.3942 14.661 69.4642C14.655 69.4828 14.6496 69.4996 14.6454 69.5133C14.2954 70.5988 14.6412 72.1049 14.9857 73.6055L14.9858 73.6055C15.1521 74.3301 15.3182 75.0534 15.4055 75.7275C15.8269 79.0013 16.3113 81.4541 16.9025 83.1635C14.8984 83.2774 12.9798 83.6538 12.0782 87.9913C12.0663 88.0493 12.0381 88.1356 12.0159 88.2036C12.0075 88.2292 12 88.2522 11.9945 88.2702C11.6331 89.347 11.951 90.8538 12.2684 92.358C12.4224 93.0879 12.5762 93.8173 12.6523 94.4966C12.7036 94.9569 12.7563 95.401 12.8107 95.8293C12.5122 96.4377 12.2518 97.1969 12.0388 98.1454C12.027 98.2034 11.9988 98.2897 11.9765 98.3577C11.9682 98.3833 11.9607 98.4063 11.9552 98.4242C11.5745 99.4989 11.8811 101.005 12.1871 102.508L12.1871 102.508L12.1871 102.509L12.1871 102.509C12.3366 103.243 12.4859 103.977 12.5548 104.659C12.9325 108.365 13.4205 111.027 14.0792 112.758C12.6269 113.233 11.1757 113.712 9.72594 114.195C8.90041 114.471 8.0279 114.579 7.15826 114.686L7.15824 114.686L7.15823 114.686L7.15821 114.686C4.55722 115.007 1.98195 115.325 0.766397 120.132C0.743033 120.214 0.690646 120.356 0.663511 120.424C0.218607 121.548 0.584425 123.046 0.94921 124.54C1.12642 125.266 1.30338 125.99 1.38704 126.671C2.54988 136.133 4.54669 138.659 8.54895 136.034C9.32554 135.521 10.3104 135.536 11.2747 135.55C11.3845 135.552 11.4941 135.554 11.6031 135.555C13.7262 135.584 16.862 134.804 19.1699 134.229C19.5364 134.138 19.8821 134.052 20.1995 133.975C21.6047 133.636 22.9614 132.875 24.2887 132.131C25.6045 131.392 26.8915 130.67 28.1685 130.392C32.509 129.445 36.9087 128.705 41.3082 127.966C47.9652 126.847 54.6217 125.728 61.072 123.891C68.255 121.848 75.2569 119.177 82.2593 116.506C87.3553 114.562 92.4515 112.618 97.618 110.916C104.444 108.665 111.342 106.657 118.239 104.648C124.539 102.814 130.839 100.98 137.084 98.9606C141.826 97.4273 146.616 96.0587 151.405 94.69C161.33 91.8542 171.255 89.018 180.764 84.7153C187.923 81.475 195.674 80.0566 203.419 78.6395C206.1 78.1489 208.781 77.6584 211.436 77.0925C215.704 76.1902 217.034 70.6 214.715 62.3376C212.632 54.9333 208.936 55.4402 206.416 55.7859C206.236 55.8105 206.063 55.8343 205.896 55.8544Z" fill="#FE6D04"/>
</svg>
