<svg width="64" height="64" viewBox="0 0 64 64" fill="none" xmlns="http://www.w3.org/2000/svg">
<rect width="64" height="64" rx="32" fill="#F5F6FF"/>
<path d="M26.7308 38.3169C32.3861 38.0175 36.875 33.5503 36.875 28.0833C36.875 22.4223 32.0621 17.8333 26.125 17.8333C20.1879 17.8333 15.375 22.4223 15.375 28.0833C15.375 30.1003 15.9858 31.9812 17.041 33.5669L16.2813 35.7401L16.2801 35.7433C15.9891 36.5756 15.8436 36.992 15.9472 37.2691C16.0375 37.5106 16.238 37.701 16.4913 37.7871C16.781 37.8856 17.2146 37.7477 18.0817 37.4722L18.094 37.4686L20.3738 36.7442C22.037 37.7503 24.0097 38.3329 26.1251 38.3329C26.3284 38.3329 26.5303 38.3276 26.7308 38.3169ZM26.7308 38.3169C26.731 38.3173 26.7307 38.3165 26.7308 38.3169ZM26.7308 38.3169C28.2017 42.3067 32.1882 45.1668 36.8753 45.1668C38.9907 45.1668 40.963 44.5837 42.626 43.5775L44.9053 44.3019L44.9098 44.3028C45.7826 44.5802 46.22 44.7192 46.5107 44.6204C46.7639 44.5343 46.9619 44.3439 47.0522 44.1024C47.156 43.8249 47.0108 43.408 46.719 42.5734L45.9593 40.4003L46.2138 39.9982C47.1122 38.5006 47.624 36.7655 47.624 34.9166C47.624 29.2557 42.812 24.6666 36.875 24.6666L36.4726 24.6737L36.2696 24.6831" stroke="#06060D" strokeWidth="2.5" strokeLinecap="round" strokeLinejoin="round"/>
</svg>
