<svg xmlns="http://www.w3.org/2000/svg" width="30" height="30" viewBox="0 0 30 30" fill="none">
  <path d="M11.6727 19.9881C15.6182 19.7689 18.75 16.5003 18.75 12.5C18.75 8.35786 15.3921 5 11.25 5C7.10786 5 3.75 8.35786 3.75 12.5C3.75 13.9759 4.17617 15.3521 4.91236 16.5125L4.38232 18.1026L4.38148 18.1049C4.17847 18.7139 4.07692 19.0186 4.14923 19.2214C4.21224 19.3981 4.35211 19.5373 4.52881 19.6004C4.7309 19.6724 5.03343 19.5716 5.63836 19.3699L5.64697 19.3673L7.23755 18.8373C8.39788 19.5735 9.77419 19.9998 11.2501 19.9998C11.3919 19.9998 11.5328 19.9958 11.6727 19.9881ZM11.6727 19.9881C11.6728 19.9884 11.6726 19.9878 11.6727 19.9881ZM11.6727 19.9881C12.6988 22.9074 15.4801 25.0002 18.7502 25.0002C20.2261 25.0002 21.6021 24.5735 22.7623 23.8373L24.3525 24.3673L24.3556 24.3679C24.9646 24.5709 25.2698 24.6727 25.4726 24.6003C25.6493 24.5373 25.7873 24.398 25.8504 24.2213C25.9228 24.0183 25.8215 23.7133 25.6179 23.1026L25.0879 21.5125L25.2654 21.2183C25.8922 20.1224 26.2493 18.8529 26.2493 17.5C26.2493 13.3579 22.8921 10 18.75 10L18.4692 10.0052L18.3276 10.0121" stroke="#F4F5F7" strokeWidth="2.5" strokeLinecap="round" strokeLinejoin="round"/>
</svg>