<svg xmlns="http://www.w3.org/2000/svg" width="40" height="40" viewBox="0 0 40 40" fill="none">
  <path d="M23.3337 16.6667V28.3333M16.667 16.6667V28.3333M10.0003 10V29.6667C10.0003 31.5335 10.0003 32.4663 10.3636 33.1793C10.6832 33.8065 11.1928 34.3175 11.82 34.637C12.5323 35 13.4653 35 15.3285 35H24.6721C26.5353 35 27.467 35 28.1793 34.637C28.8065 34.3175 29.3178 33.8065 29.6374 33.1793C30.0003 32.467 30.0003 31.535 30.0003 29.6718V10M10.0003 10H13.3337M10.0003 10H6.66699M13.3337 10H26.667M13.3337 10C13.3337 8.44686 13.3337 7.67068 13.5874 7.05811C13.9257 6.24135 14.5742 5.59205 15.391 5.25373C16.0035 5 16.7805 5 18.3337 5H21.667C23.2201 5 23.9967 5 24.6093 5.25373C25.426 5.59205 26.0748 6.24135 26.4131 7.05811C26.6668 7.67067 26.667 8.44686 26.667 10M26.667 10H30.0003M30.0003 10H33.3337" stroke="#F4F5F7" strokeWidth="3.33333" strokeLinecap="round" strokeLinejoin="round"/>
</svg>