<svg width="34" height="34" viewBox="0 0 34 34" fill="none" xmlns="http://www.w3.org/2000/svg">
<g id="File / File_Blank">
<path id="Vector" d="M18.4166 4.25123C18.2813 4.25 18.1294 4.25 17.9558 4.25H11.6169C10.03 4.25 9.23605 4.25 8.62996 4.55882C8.09684 4.83046 7.66371 5.26359 7.39207 5.79671C7.08325 6.4028 7.08325 7.19679 7.08325 8.78361V25.2169C7.08325 26.8038 7.08325 27.5968 7.39207 28.2028C7.66371 28.736 8.09684 29.1698 8.62996 29.4415C9.23546 29.75 10.0285 29.75 11.6123 29.75L22.3876 29.75C23.9713 29.75 24.7632 29.75 25.3687 29.4415C25.9019 29.1698 26.3364 28.736 26.6081 28.2028C26.9166 27.5973 26.9166 26.8054 26.9166 25.2217V13.2114C26.9166 13.0375 26.9165 12.8854 26.9153 12.75M18.4166 4.25123C18.8212 4.25491 19.0772 4.26961 19.3216 4.32829C19.6107 4.39769 19.8869 4.51246 20.1404 4.66781C20.4262 4.84297 20.6717 5.08841 21.1614 5.57812L25.5891 10.0059C26.0792 10.4959 26.3228 10.7403 26.498 11.0262C26.6534 11.2797 26.7683 11.5561 26.8377 11.8452C26.8964 12.0895 26.9114 12.3456 26.9153 12.75M18.4166 4.25123V8.21667C18.4166 9.80348 18.4166 10.5963 18.7254 11.2024C18.997 11.7355 19.4302 12.1698 19.9633 12.4415C20.5688 12.75 21.3618 12.75 22.9455 12.75H26.9153M26.9153 12.75H26.9169" stroke="#F4F5F7" strokeWidth="2.83333" strokeLinecap="round" strokeLinejoin="round"/>
</g>
</svg>
