<svg width="25" height="24" viewBox="0 0 25 24" fill="none" xmlns="http://www.w3.org/2000/svg">
<g id="Warning / Circle_Help 24 PXL">
<path id="Vector" d="M9.43213 9.07361C9.60293 8.54732 9.9158 8.07896 10.3364 7.71948C10.7571 7.36001 11.2694 7.12378 11.8159 7.03708C12.3624 6.95038 12.9219 7.0164 13.4331 7.22803C13.9443 7.43966 14.3871 7.78875 14.7124 8.23633C15.0377 8.68391 15.2325 9.21256 15.276 9.76416C15.3195 10.3158 15.2095 10.8688 14.9583 11.3618C14.7072 11.8548 14.325 12.2685 13.8533 12.5576C13.3815 12.8467 12.839 12.9998 12.2856 12.9998V14.0002M12.2856 21C7.31508 21 3.28564 16.9706 3.28564 12C3.28564 7.02944 7.31508 3 12.2856 3C17.2562 3 21.2856 7.02944 21.2856 12C21.2856 16.9706 17.2562 21 12.2856 21ZM12.3354 17V17.1L12.2358 17.1002V17H12.3354Z" stroke="white" strokeWidth="2" strokeLinecap="round" strokeLinejoin="round"/>
</g>
</svg>
