<svg width="122" height="64" viewBox="0 0 122 64" fill="none" xmlns="http://www.w3.org/2000/svg">
<path id="Loop 4" d="M34.5537 12.1681C33.1499 12.4265 30.8546 12.8614 28.0642 13.559C25.2824 14.2695 21.9838 15.2341 18.7025 16.7155C15.4298 18.1796 12.1485 20.1992 9.56477 22.7183C8.27291 23.98 7.14037 25.3666 6.21023 26.8006C5.28439 28.2388 4.56095 29.7159 4.03129 31.1412C2.80402 34.4312 2.46383 38.0354 3.38536 41.334C3.85904 42.9833 4.59539 44.5551 5.55568 45.9977C6.50304 47.4488 7.72601 48.7364 9.06094 49.9034C11.7394 52.246 14.9777 54.0071 18.3494 55.4239C20.0461 56.1172 21.7858 56.7287 23.5513 57.2626C25.3513 57.7406 27.1298 58.2962 28.9556 58.6751C43.4632 62.0425 58.789 61.9134 73.2578 58.2876C73.8262 58.167 74.4377 57.9861 75.0751 57.8095C75.7124 57.633 76.3798 57.4478 77.0516 57.2626C77.732 57.0904 78.3951 56.8579 79.0583 56.6641C79.7172 56.4617 80.3631 56.2679 80.9789 56.0957C83.4119 55.3378 85.3152 54.8296 85.4315 55.3205C85.5478 55.8201 84.4023 56.6899 82.2363 57.8182C81.1382 58.3392 79.7817 58.912 78.1971 59.4977C76.5909 60.0144 74.7822 60.6388 72.7411 61.0909C62.9057 63.4679 52.6871 64.2474 42.6063 63.4636C37.568 63.0632 32.5642 62.2708 27.6594 61.0995L26.7379 60.8929L25.825 60.6474L23.9992 60.1521C22.7848 59.8334 21.5662 59.4632 20.369 59.0541C17.9705 58.2402 15.6107 57.2713 13.3456 56.0914C12.5102 55.678 11.7092 55.1828 10.8997 54.7091C10.116 54.188 9.31931 53.6885 8.57433 53.1029C7.06716 51.9661 5.63751 50.6828 4.42316 49.1885C4.26813 49.0033 4.10449 48.8268 3.96239 48.6373L3.54038 48.0474C3.26478 47.6512 2.95904 47.2766 2.73081 46.846C2.48966 46.4283 2.23559 46.0106 2.00306 45.5843L1.3959 44.2579C0.659534 42.4622 0.172931 40.5374 0.0480507 38.591C-0.240465 34.681 0.793023 30.8139 2.53704 27.4292C3.4112 25.7283 4.47483 24.1351 5.68487 22.6667C6.90353 21.2069 8.29444 19.872 9.78008 18.7007C12.7514 16.3581 16.1016 14.5667 19.5638 13.2103C23.0303 11.8495 26.6001 10.8634 30.1829 10.071C31.9742 9.66623 33.7742 9.3562 35.5699 9.0074C36.4656 8.82223 37.3742 8.70163 38.2742 8.55522L40.9871 8.12891C44.613 7.65093 48.2517 7.22456 51.9034 7.00064C65.0158 6.10925 78.2487 6.96626 91.1415 9.54567C92.7477 9.89878 94.3582 10.226 95.9558 10.6007C97.5491 11.0098 99.151 11.3671 100.736 11.8149L103.108 12.4824L104.297 12.8183L105.494 13.193C107.087 13.7141 108.659 14.3212 110.196 15.0489C111.729 15.781 113.228 16.625 114.619 17.6671C116.01 18.7092 117.297 19.9409 118.348 21.392C120.471 24.2858 121.436 28.0537 120.923 31.6107C120.467 34.9523 118.873 38.0828 116.544 40.4728C114.296 42.7981 111.596 44.6498 108.788 46.101C107.385 46.8287 105.946 47.4876 104.508 48.056L102.351 48.9259L101.27 49.3608C100.908 49.5029 100.542 49.6235 100.176 49.757C97.2649 50.8206 94.3066 51.7723 91.3137 52.5862C79.3468 55.846 66.8158 57.0603 54.4354 56.1259C49.0957 55.7168 43.7775 54.9459 38.5584 53.723C37.2536 53.4215 35.9618 53.0641 34.6656 52.7325C33.3695 52.4139 32.0776 52.0091 30.79 51.5914C29.5025 51.1694 28.2235 50.7 26.9661 50.1617C25.7087 49.6234 24.4599 49.0335 23.2585 48.3402C22.0571 47.6469 20.8858 46.8804 19.7877 45.9977C18.6939 45.1106 17.6776 44.1159 16.7647 43.0221L16.1059 42.1823C15.8992 41.8895 15.7054 41.5881 15.5073 41.2953L15.2102 40.8475C15.1198 40.6924 15.038 40.5374 14.9475 40.3823L14.4351 39.4436L14.0002 38.4704L13.7848 37.9838L13.6083 37.48C13.492 37.1441 13.3671 36.8125 13.2595 36.4766L12.9839 35.4518C11.636 29.9527 12.4585 24.1092 14.9863 19.1398C15.5676 17.9556 16.2997 16.8016 17.0963 15.6346C17.9145 14.4848 18.836 13.3609 19.8394 12.293C21.8633 10.1743 24.2188 8.30969 26.6518 6.86281C28.6499 5.64415 31.4661 4.27916 34.3986 3.28012C37.3226 2.27247 40.3326 1.60932 42.5804 1.2433C44.5225 0.924637 46.5464 0.696383 48.4455 0.463848C52.8163 -0.052897 55.5852 -0.0658745 56.8899 0.0805365C58.199 0.239866 58.0526 0.614569 56.623 1.22174C55.9943 1.48873 56.7392 1.7772 54.6636 2.03988C54.5775 2.0528 54.4053 2.07438 54.3278 2.0873C51.1885 2.58251 48.0278 2.94849 44.8756 3.43509C41.7278 3.93461 38.567 4.55471 35.5398 5.60112C31.8321 6.87145 28.2968 8.65854 25.1834 10.9925C22.0743 13.3222 19.3958 16.2202 17.5485 19.5877C15.7226 22.9293 14.7968 26.7877 14.9131 30.5857C15.0207 34.3838 16.248 38.1345 18.6078 41.0412C19.1848 41.7819 19.8566 42.445 20.5456 43.091C21.2647 43.7111 22.0011 44.3096 22.802 44.835C24.3824 45.9116 26.1135 46.803 27.9178 47.5522C29.7221 48.3058 31.5867 48.9388 33.4943 49.4857C34.4417 49.7699 35.4149 49.9982 36.3795 50.2436C37.3484 50.4762 38.3044 50.7517 39.2819 50.9541C47.0632 52.6637 55.0297 53.5765 63.0048 53.5077C72.7885 53.512 82.5636 52.0996 91.9812 49.4814C96.6836 48.1594 101.296 46.4455 105.74 44.512C107.923 43.5044 110.007 42.3417 111.876 40.9163C112.81 40.2058 113.689 39.4307 114.503 38.5953C115.299 37.7901 115.98 36.9029 116.535 35.9297C117.762 33.8153 118.357 31.3522 118.184 28.958C118.15 28.6608 118.141 28.3595 118.081 28.0667L118.012 27.6231L117.905 27.1882C117.823 26.8997 117.78 26.5982 117.676 26.3183L117.375 25.4743C116.914 24.3719 116.29 23.334 115.528 22.3651L115.584 22.4298C113.908 20.4748 111.665 18.9461 109.21 17.7834C107.987 17.1891 106.708 16.6853 105.404 16.2417C104.753 16.0092 104.09 15.8154 103.427 15.6087L101.382 15.0361C91.0726 12.1122 80.1908 10.3121 69.3521 9.79105C58.5177 9.25277 47.7393 9.89446 37.5895 11.5782C36.7843 11.6772 35.725 11.9528 34.5537 12.1681Z" fill="#FE6D04"/>
</svg>
