<svg width="25" height="25" viewBox="0 0 25 25" fill="none" xmlns="http://www.w3.org/2000/svg">
<path fill-rule="evenodd" clip-rule="evenodd" d="M22.4632 4.87028L17.6908 20.3806C17.2631 21.7706 17.0491 22.466 16.6802 22.6965C16.3602 22.8964 15.9641 22.9298 15.6156 22.7852C15.2138 22.6185 14.8877 21.9673 14.2371 20.6662L12.6871 17.5662C12.4625 17.1171 12.5506 16.5746 12.9056 16.2195L18.742 10.3832C19.881 9.24417 19.881 7.39744 18.742 6.25841C17.603 5.11938 15.7562 5.11938 14.6172 6.2584L8.78068 12.0949C8.42559 12.45 7.88313 12.538 7.43397 12.3135L4.33392 10.7634C3.03273 10.1128 2.38208 9.78724 2.21535 9.38542C2.07076 9.03694 2.10373 8.64043 2.30365 8.32046C2.53417 7.95152 3.22945 7.73719 4.61989 7.30936L20.1302 2.53695C21.2234 2.2006 21.7701 2.03257 22.1394 2.16812C22.461 2.28618 22.7145 2.53948 22.8326 2.86109C22.9681 3.23012 22.7999 3.77661 22.4639 4.86858C22.4639 4.86864 22.4639 4.86869 22.4639 4.86875L22.4632 4.87028Z" fill="#EAEAEC"/>
<path d="M17.6908 20.3806L18.8058 20.7237L17.6908 20.3806ZM22.4632 4.87028L21.3942 4.40302C21.3765 4.4435 21.3611 4.48496 21.3481 4.52718L22.4632 4.87028ZM16.6802 22.6965L17.2984 23.6859L17.2984 23.6859L16.6802 22.6965ZM15.6156 22.7852L15.1685 23.8628L15.1685 23.8628L15.6156 22.7852ZM14.2371 20.6662L13.1936 21.1879H13.1936L14.2371 20.6662ZM18.742 10.3832L19.5669 11.2082H19.5669L18.742 10.3832ZM18.742 6.25841L19.5669 5.43345L19.5669 5.43345L18.742 6.25841ZM14.6172 6.2584L13.7922 5.43345L14.6172 6.2584ZM4.33392 10.7634L4.85567 9.71993H4.85567L4.33392 10.7634ZM2.21535 9.38542L1.13777 9.83255L1.13777 9.83255L2.21535 9.38542ZM2.30365 8.32046L3.29306 8.93866L3.29306 8.93866L2.30365 8.32046ZM4.61989 7.30936L4.27679 6.19429L4.61989 7.30936ZM20.1302 2.53695L20.4733 3.65202V3.65202L20.1302 2.53695ZM22.1394 2.16812L21.7373 3.26331L21.7373 3.26331L22.1394 2.16812ZM22.8326 2.86109L21.7374 3.26315V3.26315L22.8326 2.86109ZM22.4639 4.86858L21.3488 4.52549C21.3455 4.53639 21.3423 4.54734 21.3393 4.55833L22.4639 4.86858ZM22.4639 4.86875L21.3949 4.40149L22.4639 4.86875ZM8.78068 12.0949L9.60564 12.9199L8.78068 12.0949ZM7.43397 12.3135L6.91222 13.357L7.43397 12.3135ZM12.6871 17.5662L11.6436 18.088L12.6871 17.5662ZM12.9056 16.2195L12.0807 15.3946L12.9056 16.2195ZM18.8058 20.7237L23.5783 5.21338L21.3481 4.52718L16.5757 20.0375L18.8058 20.7237ZM17.2984 23.6859C17.8233 23.3579 18.0832 22.8085 18.2441 22.4129C18.4212 21.9774 18.5988 21.3968 18.8058 20.7237L16.5757 20.0375C16.3551 20.7545 16.2118 21.2165 16.0827 21.5339C15.9375 21.891 15.906 21.8045 16.062 21.707L17.2984 23.6859ZM15.1685 23.8628C15.8668 24.1526 16.6598 24.0849 17.2984 23.6859L16.062 21.707L16.0627 21.7076L15.1685 23.8628ZM13.1936 21.1879C13.5087 21.8181 13.7795 22.3619 14.026 22.7625C14.25 23.1265 14.5969 23.6256 15.1685 23.8628L16.0627 21.7076C16.2325 21.7781 16.2154 21.8682 16.0132 21.5397C15.8336 21.2478 15.616 20.8154 15.2806 20.1444L13.1936 21.1879ZM11.6436 18.088L13.1936 21.1879L15.2806 20.1444L13.7306 17.0445L11.6436 18.088ZM17.917 9.55824L12.0807 15.3946L13.7306 17.0445L19.5669 11.2082L17.917 9.55824ZM17.917 7.08336C18.6004 7.76678 18.6004 8.87482 17.917 9.55824L19.5669 11.2082C21.1616 9.61351 21.1616 7.02809 19.5669 5.43345L17.917 7.08336ZM15.4422 7.08336C16.1256 6.39995 17.2336 6.39995 17.917 7.08336L19.5669 5.43345C17.9723 3.83881 15.3869 3.83881 13.7922 5.43345L15.4422 7.08336ZM9.60564 12.9199L15.4422 7.08336L13.7922 5.43345L7.95572 11.27L9.60564 12.9199ZM3.81217 11.8069L6.91222 13.357L7.95572 11.27L4.85567 9.71993L3.81217 11.8069ZM1.13777 9.83255C1.37495 10.4042 1.87395 10.7509 2.2379 10.9748C2.63839 11.2212 3.18205 11.4919 3.81217 11.8069L4.85567 9.71993C4.1846 9.3844 3.75234 9.16697 3.46052 8.98745C3.13217 8.78544 3.22248 8.76849 3.29293 8.93829L1.13777 9.83255ZM1.31423 7.70227C0.9146 8.34187 0.848431 9.13525 1.13777 9.83255L3.29293 8.93829L3.29306 8.93866L1.31423 7.70227ZM4.27679 6.19429C3.6034 6.40149 3.02265 6.57913 2.58708 6.75637C2.19122 6.91745 1.64212 7.17749 1.31423 7.70227L3.29306 8.93866C3.1957 9.09449 3.10949 9.0629 3.46652 8.91762C3.78383 8.78851 4.24594 8.64507 4.96299 8.42444L4.27679 6.19429ZM19.7871 1.42187L4.27679 6.19429L4.96299 8.42444L20.4733 3.65202L19.7871 1.42187ZM22.5414 1.07292C22.0378 0.888028 21.5383 0.95572 21.1664 1.03382C20.7821 1.11455 20.3116 1.26049 19.7871 1.42187L20.4733 3.65202C21.042 3.47706 21.3914 3.37082 21.6461 3.31732C21.9133 3.26121 21.8717 3.31265 21.7373 3.26331L22.5414 1.07292ZM23.9278 2.45902C23.6915 1.81541 23.1842 1.3089 22.5414 1.07292L21.7373 3.26331L21.7374 3.26315L23.9278 2.45902ZM23.579 5.21168C23.7402 4.68785 23.8861 4.21771 23.9668 3.8337C24.0448 3.46222 24.1127 2.96268 23.9278 2.45902L21.7374 3.26315C21.688 3.12853 21.7394 3.08675 21.6833 3.35376C21.6298 3.60825 21.5237 3.95734 21.3488 4.52549L23.579 5.21168ZM23.5322 5.33754L23.5329 5.336L21.3949 4.40149L21.3942 4.40302L23.5322 5.33754ZM21.3393 4.55833C21.354 4.50479 21.3726 4.45238 21.3949 4.40149L23.5329 5.336C23.5552 5.28501 23.5738 5.23249 23.5886 5.17884L21.3393 4.55833ZM7.95572 11.27L6.91222 13.357C7.81053 13.8061 8.89546 13.63 9.60564 12.9199L7.95572 11.27ZM13.7306 17.0445L13.7306 17.0445L12.0807 15.3946C11.3705 16.1047 11.1945 17.1897 11.6436 18.088L13.7306 17.0445Z" fill="#EAEAEC"/>
</svg>
