<svg width="28" height="28" viewBox="0 0 28 28" fill="none" xmlns="http://www.w3.org/2000/svg">
<g id="Communication / Paper_Plane">
<g id="Subtract">
<path fill-rule="evenodd" clip-rule="evenodd" d="M23.4632 6.87028L18.6908 22.3806C18.2631 23.7706 18.0491 24.466 17.6802 24.6965C17.3602 24.8964 16.9641 24.9298 16.6156 24.7852C16.2138 24.6185 15.8877 23.9673 15.2371 22.6662L13.6871 19.5662C13.4625 19.1171 13.5506 18.5746 13.9056 18.2195L19.742 12.3832C20.881 11.2442 20.881 9.39744 19.742 8.25841C18.603 7.11938 16.7562 7.11938 15.6172 8.2584L9.78068 14.0949C9.42559 14.45 8.88313 14.538 8.43397 14.3135L5.33392 12.7634C4.03273 12.1128 3.38208 11.7872 3.21535 11.3854C3.07076 11.0369 3.10373 10.6404 3.30365 10.3205C3.53417 9.95152 4.22945 9.73719 5.61989 9.30936L21.1302 4.53695C22.2234 4.2006 22.7701 4.03257 23.1394 4.16812C23.461 4.28618 23.7145 4.53948 23.8326 4.86109C23.9681 5.23012 23.7999 5.77661 23.4639 6.86858C23.4639 6.86864 23.4639 6.86869 23.4639 6.86875L23.4632 6.87028Z" fill="#EAEAEC"/>
<path d="M18.6908 22.3806L19.8058 22.7237L18.6908 22.3806ZM23.4632 6.87028L22.3942 6.40302C22.3765 6.4435 22.3611 6.48496 22.3481 6.52718L23.4632 6.87028ZM17.6802 24.6965L18.2984 25.6859L18.2984 25.6859L17.6802 24.6965ZM16.6156 24.7852L16.1685 25.8628L16.1685 25.8628L16.6156 24.7852ZM15.2371 22.6662L14.1936 23.1879H14.1936L15.2371 22.6662ZM19.742 12.3832L20.5669 13.2082H20.5669L19.742 12.3832ZM19.742 8.25841L20.5669 7.43345L20.5669 7.43345L19.742 8.25841ZM15.6172 8.2584L14.7922 7.43345L15.6172 8.2584ZM5.33392 12.7634L5.85567 11.7199H5.85567L5.33392 12.7634ZM3.21535 11.3854L2.13777 11.8325L2.13777 11.8325L3.21535 11.3854ZM3.30365 10.3205L4.29306 10.9387L4.29306 10.9387L3.30365 10.3205ZM5.61989 9.30936L5.27679 8.19429L5.61989 9.30936ZM21.1302 4.53695L21.4733 5.65202V5.65202L21.1302 4.53695ZM23.1394 4.16812L22.7373 5.26331L22.7373 5.26331L23.1394 4.16812ZM23.8326 4.86109L22.7374 5.26315V5.26315L23.8326 4.86109ZM23.4639 6.86858L22.3488 6.52549C22.3455 6.53639 22.3423 6.54734 22.3393 6.55833L23.4639 6.86858ZM23.4639 6.86875L22.3949 6.40149L23.4639 6.86875ZM9.78068 14.0949L10.6056 14.9199L9.78068 14.0949ZM8.43397 14.3135L7.91222 15.357L8.43397 14.3135ZM13.6871 19.5662L12.6436 20.088L13.6871 19.5662ZM13.9056 18.2195L13.0807 17.3946L13.9056 18.2195ZM19.8058 22.7237L24.5783 7.21338L22.3481 6.52718L17.5757 22.0375L19.8058 22.7237ZM18.2984 25.6859C18.8233 25.3579 19.0832 24.8085 19.2441 24.4129C19.4212 23.9774 19.5988 23.3968 19.8058 22.7237L17.5757 22.0375C17.3551 22.7545 17.2118 23.2165 17.0827 23.5339C16.9375 23.891 16.906 23.8045 17.062 23.707L18.2984 25.6859ZM16.1685 25.8628C16.8668 26.1526 17.6598 26.0849 18.2984 25.6859L17.062 23.707L17.0627 23.7076L16.1685 25.8628ZM14.1936 23.1879C14.5087 23.8181 14.7795 24.3619 15.026 24.7625C15.25 25.1265 15.5969 25.6256 16.1685 25.8628L17.0627 23.7076C17.2325 23.7781 17.2154 23.8682 17.0132 23.5397C16.8336 23.2478 16.616 22.8154 16.2806 22.1444L14.1936 23.1879ZM12.6436 20.088L14.1936 23.1879L16.2806 22.1444L14.7306 19.0445L12.6436 20.088ZM18.917 11.5582L13.0807 17.3946L14.7306 19.0445L20.5669 13.2082L18.917 11.5582ZM18.917 9.08336C19.6004 9.76678 19.6004 10.8748 18.917 11.5582L20.5669 13.2082C22.1616 11.6135 22.1616 9.02809 20.5669 7.43345L18.917 9.08336ZM16.4422 9.08336C17.1256 8.39995 18.2336 8.39995 18.917 9.08336L20.5669 7.43345C18.9723 5.83881 16.3869 5.83881 14.7922 7.43345L16.4422 9.08336ZM10.6056 14.9199L16.4422 9.08336L14.7922 7.43345L8.95572 13.27L10.6056 14.9199ZM4.81217 13.8069L7.91222 15.357L8.95572 13.27L5.85567 11.7199L4.81217 13.8069ZM2.13777 11.8325C2.37495 12.4042 2.87395 12.7509 3.2379 12.9748C3.63839 13.2212 4.18205 13.4919 4.81217 13.8069L5.85567 11.7199C5.1846 11.3844 4.75234 11.167 4.46052 10.9874C4.13217 10.7854 4.22248 10.7685 4.29293 10.9383L2.13777 11.8325ZM2.31423 9.70227C1.9146 10.3419 1.84843 11.1352 2.13777 11.8325L4.29293 10.9383L4.29306 10.9387L2.31423 9.70227ZM5.27679 8.19429C4.6034 8.40149 4.02265 8.57913 3.58708 8.75637C3.19122 8.91745 2.64212 9.17749 2.31423 9.70227L4.29306 10.9387C4.1957 11.0945 4.10949 11.0629 4.46652 10.9176C4.78383 10.7885 5.24594 10.6451 5.96299 10.4244L5.27679 8.19429ZM20.7871 3.42187L5.27679 8.19429L5.96299 10.4244L21.4733 5.65202L20.7871 3.42187ZM23.5414 3.07292C23.0378 2.88803 22.5383 2.95572 22.1664 3.03382C21.7821 3.11455 21.3116 3.26049 20.7871 3.42187L21.4733 5.65202C22.042 5.47706 22.3914 5.37082 22.6461 5.31732C22.9133 5.26121 22.8717 5.31265 22.7373 5.26331L23.5414 3.07292ZM24.9278 4.45902C24.6915 3.81541 24.1842 3.3089 23.5414 3.07292L22.7373 5.26331L22.7374 5.26315L24.9278 4.45902ZM24.579 7.21168C24.7402 6.68785 24.8861 6.21771 24.9668 5.8337C25.0448 5.46222 25.1127 4.96268 24.9278 4.45902L22.7374 5.26315C22.688 5.12853 22.7394 5.08675 22.6833 5.35376C22.6298 5.60825 22.5237 5.95734 22.3488 6.52549L24.579 7.21168ZM24.5322 7.33754L24.5329 7.336L22.3949 6.40149L22.3942 6.40302L24.5322 7.33754ZM22.3393 6.55833C22.354 6.50479 22.3726 6.45238 22.3949 6.40149L24.5329 7.336C24.5552 7.28501 24.5738 7.23249 24.5886 7.17884L22.3393 6.55833ZM8.95572 13.27L7.91222 15.357C8.81053 15.8061 9.89546 15.63 10.6056 14.9199L8.95572 13.27ZM14.7306 19.0445L14.7306 19.0445L13.0807 17.3946C12.3705 18.1047 12.1945 19.1897 12.6436 20.088L14.7306 19.0445Z" fill="#EAEAEC"/>
</g>
</g>
</svg>
