<svg width="36" height="40" viewBox="0 0 36 40" fill="none" xmlns="http://www.w3.org/2000/svg">
<g id="Group 238">
<path id="Vector" d="M30.5014 7.34021C30.3575 7.34021 27.3361 7.05246 27.3361 7.05246C27.3361 7.05246 25.178 4.89432 24.8902 4.75044C24.7464 4.60657 24.7464 4.60657 24.6025 4.60657L22.876 40.0001L35.2493 37.2664C35.2493 37.2664 30.933 7.91572 30.933 7.62797C30.933 7.48409 30.6453 7.34021 30.5014 7.34021Z" fill="#F4F5F7"/>
<path id="Subtract" fill-rule="evenodd" clip-rule="evenodd" d="M16.7715 1.47211C16.6022 1.37435 16.4687 1.29724 16.258 1.29724C12.5172 1.29724 10.503 6.18903 9.49582 9.06656L12.6611 8.2033C13.5244 4.17477 15.2509 2.30438 16.9774 1.585C16.9003 1.54644 16.8335 1.50789 16.7715 1.47211ZM18.4161 6.18903C18.4161 4.60639 18.1284 3.59926 17.8406 2.736C16.5458 3.31151 15.107 4.6064 14.2437 7.62779L18.4161 6.47678V6.18903ZM19.711 5.90128L21.5814 5.32578C21.1498 3.88701 20.2865 2.59213 19.2794 2.30438C19.5672 3.16763 19.711 4.17477 19.711 5.46965V5.90128ZM30.6456 7.34004C30.7895 7.34004 30.9334 7.48392 30.9334 7.62779C30.9334 7.91555 35.2496 37.2663 35.2496 37.2663L22.8763 39.9999L0 35.6836C0 35.6836 2.87752 12.9512 3.0214 12.2318C3.02401 12.2136 3.02657 12.1956 3.02909 12.1779C3.16565 11.2194 3.18615 11.0756 4.31628 10.7931C4.64705 10.6828 4.96842 10.5726 5.2828 10.4647C6.19919 10.1503 7.05619 9.85631 7.91319 9.64206C8.77644 6.33291 11.2223 -0.141518 16.4019 0.00235852C17.1213 0.00235852 17.9845 0.290111 18.56 1.15337H18.7039C20.862 1.15337 22.1569 3.02376 22.8763 5.03802C23.5957 4.75027 24.0273 4.60639 24.0273 4.60639C24.0561 4.60639 24.0964 4.60064 24.1447 4.59373C24.3381 4.56611 24.6604 4.52007 24.8906 4.75027C25.1783 4.89415 27.3365 7.05229 27.3365 7.05229C27.3365 7.05229 30.3579 7.34004 30.6456 7.34004ZM17.1221 18.8499L18.7047 14.2459C18.7047 14.2459 17.6976 13.5265 15.2517 13.6704C9.92826 13.6704 7.19461 17.2673 7.19461 21.0081C7.19461 23.5097 8.59776 24.6535 9.83004 25.658C10.7948 26.4444 11.6548 27.1454 11.6548 28.3458C11.6548 29.0651 11.2231 29.9284 10.0721 29.9284C8.34562 29.9284 6.33135 28.2019 6.33135 28.2019L5.32422 31.6549C5.32422 31.6549 7.33848 34.1008 11.2231 34.1008C14.5323 34.1008 16.9782 31.6549 16.9782 27.7703C16.9782 24.7905 14.9496 23.3055 13.3638 22.1447C12.3462 21.3997 11.5109 20.7883 11.5109 20.0009C11.5109 19.5693 11.6548 18.1306 14.1007 18.1306C15.8272 18.1306 17.1221 18.8499 17.1221 18.8499Z" fill="#F4F5F7"/>
</g>
</svg>
