<svg width="40" height="40" viewBox="0 0 40 40" fill="none" xmlns="http://www.w3.org/2000/svg">
<g id="Group 239">
<path id="Vector" d="M20.2071 35.868C16.8841 35.868 13.7828 34.8663 11.1921 33.1617L4.89283 35.1743L6.93478 29.0874C4.97003 26.3903 3.81451 23.0675 3.81451 19.4846C3.81451 10.4503 11.1633 3.10151 20.1976 3.10151C29.232 3.10151 36.5807 10.4503 36.5807 19.4846C36.5807 28.5187 29.232 35.8677 20.1976 35.8677H20.2071V35.868ZM20.2071 0C9.44833 0 0.722508 8.72664 0.722508 19.4849C0.722508 23.164 1.74348 26.6121 3.5155 29.5497L0 40L10.7876 36.5424C13.671 38.1368 16.9123 38.972 20.2071 38.9695C30.9657 38.9695 39.6917 30.2434 39.6917 19.4849C39.6915 8.72664 30.9657 0 20.2071 0Z" fill="#F4F5F7"/>
<path id="Vector_2" d="M15.6324 11.4233C15.3146 10.6625 15.0738 10.6337 14.5924 10.6141C14.4096 10.6023 14.2264 10.596 14.0433 10.5951C13.417 10.5951 12.7622 10.778 12.3672 11.1825C11.8858 11.6737 10.6914 12.8197 10.6914 15.1699C10.6914 17.5201 12.4058 19.7931 12.6369 20.1111C12.8777 20.4286 15.9792 25.3214 20.7948 27.3155C24.5607 28.8758 25.6782 28.7312 26.5352 28.5483C27.7872 28.2786 29.3573 27.3536 29.7523 26.2367C30.1472 25.1192 30.1472 24.1656 30.0314 23.9634C29.9159 23.7612 29.5979 23.6459 29.1165 23.4048C28.6351 23.164 26.2944 22.0082 25.8513 21.854C25.4177 21.6904 25.0038 21.7483 24.6765 22.2107C24.2141 22.856 23.7615 23.5111 23.3954 23.9058C23.1064 24.214 22.6343 24.2526 22.2396 24.0887C21.7098 23.8674 20.2267 23.3469 18.3965 21.7192C16.9806 20.4577 16.0175 18.8879 15.7384 18.416C15.4589 17.9346 15.7095 17.6549 15.9308 17.395C16.1717 17.0963 16.4027 16.8846 16.6435 16.6051C16.8844 16.326 17.0192 16.1813 17.1733 15.8538C17.3372 15.536 17.2214 15.2085 17.1059 14.9677C16.9904 14.7268 16.0273 12.3766 15.6324 11.4233Z" fill="#F4F5F7"/>
</g>
</svg>
