<svg width="40" height="40" viewBox="0 0 40 40" fill="none" xmlns="http://www.w3.org/2000/svg">
<g id="XMLID_3_">
<path id="XMLID_6_" d="M2.85742 19.9998C2.85742 26.8087 6.80923 32.6676 12.5235 35.4283L4.33419 12.998C3.38066 15.1426 2.85742 17.5247 2.85742 19.9998Z" fill="#F4F5F7"/>
<path id="XMLID_5_" d="M31.5731 19.1431C31.5731 16.9986 30.8123 15.57 30.1445 14.4271C29.2874 12.9986 28.4784 11.8075 28.4784 10.4271C28.4784 8.85398 29.6695 7.38066 31.3355 7.38066C31.4319 7.38066 31.4801 7.38066 31.5731 7.38066C28.5266 4.57171 24.4784 2.85742 19.9999 2.85742C13.9999 2.85742 8.76068 5.95209 5.66602 10.5717C6.04812 10.5717 6.42677 10.5717 6.76068 10.5717C8.57135 10.5717 11.3321 10.3342 11.3321 10.3342C12.2374 10.286 12.3786 11.6216 11.4285 11.7628C11.4285 11.7628 10.475 11.8591 9.47669 11.9073L15.7142 30.4788L19.4767 19.2395L16.8089 11.9073C15.9035 11.8591 14.9982 11.7628 14.9982 11.7628C14.0929 11.7146 14.1892 10.286 15.0946 10.3342C15.0946 10.3342 17.9035 10.5717 19.6178 10.5717C21.4285 10.5717 24.1892 10.3342 24.1892 10.3342C25.0946 10.286 25.2357 11.6216 24.2856 11.7628C24.2856 11.7628 23.3321 11.8591 22.3338 11.9073L28.5232 30.3376L30.2374 24.6233C31.0016 22.286 31.5731 20.6199 31.5731 19.1431Z" fill="#F4F5F7"/>
<path id="XMLID_4_" d="M20.2864 21.4771L15.1436 36.4306C16.6685 36.8609 18.2864 37.1466 20.0007 37.1466C22.0007 37.1466 23.9043 36.8127 25.715 36.1931C25.6668 36.0967 25.6186 36.0485 25.5704 35.9555L20.2864 21.4771Z" fill="#F4F5F7"/>
<path id="XMLID_19_" d="M35.0504 11.7622C35.1468 12.2854 35.1468 12.9051 35.1468 13.5247C35.1468 15.2872 34.8129 17.239 33.8594 19.6693L28.6201 34.8121C33.7148 31.8586 37.1433 26.3371 37.1433 20.0032C37.1468 16.998 36.3826 14.2372 35.0504 11.7622Z" fill="#F4F5F7"/>
<path id="Vector" d="M20 0C8.99828 0 0 8.95353 0 20C0 31.0017 8.95353 40 20 40C31.0017 40 40 31.0465 40 20C40.0034 8.99828 31.0017 0 20 0ZM20 39.0947C9.47676 39.0947 0.905335 30.5232 0.905335 20C0.905335 9.47677 9.47676 0.950089 20 0.950089C30.5232 0.950089 39.0499 9.52152 39.0499 20C39.0499 30.5232 30.5267 39.0947 20 39.0947Z" fill="#F4F5F7"/>
</g>
</svg>
